<?xml version="1.0" encoding="utf-8" standalone="no"?>
<!DOCTYPE svg PUBLIC "-//W3C//DTD SVG 1.1//EN"
  "http://www.w3.org/Graphics/SVG/1.1/DTD/svg11.dtd">
<svg xmlns:xlink="http://www.w3.org/1999/xlink" width="460.8pt" height="345.6pt" viewBox="0 0 460.8 345.6" xmlns="http://www.w3.org/2000/svg" version="1.1">
 <metadata>
  <rdf:RDF xmlns:dc="http://purl.org/dc/elements/1.1/" xmlns:cc="http://creativecommons.org/ns#" xmlns:rdf="http://www.w3.org/1999/02/22-rdf-syntax-ns#">
   <cc:Work>
    <dc:type rdf:resource="http://purl.org/dc/dcmitype/StillImage"/>
    <dc:date>2025-11-06T14:36:20.275256</dc:date>
    <dc:format>image/svg+xml</dc:format>
    <dc:creator>
     <cc:Agent>
      <dc:title>Matplotlib v3.10.3, https://matplotlib.org/</dc:title>
     </cc:Agent>
    </dc:creator>
   </cc:Work>
  </rdf:RDF>
 </metadata>
 <defs>
  <style type="text/css">*{stroke-linejoin: round; stroke-linecap: butt}</style>
 </defs>
 <g id="figure_1">
  <g id="patch_1">
   <path d="M 0 345.6 
L 460.8 345.6 
L 460.8 0 
L 0 0 
z
" style="fill: #ffffff"/>
  </g>
  <g id="axes_1">
   <g id="patch_2">
    <path d="M 62.024375 288.908125 
L 443.52 288.908125 
L 443.52 23.04 
L 62.024375 23.04 
z
" style="fill: #ffffff"/>
   </g>
   <g id="patch_3">
    <path d="M 79.365085 288.908125 
L 91.324196 288.908125 
L 91.324196 135.906029 
L 79.365085 135.906029 
z
" clip-path="url(#pe9f02c12dd)" style="fill: #1f77b4"/>
   </g>
   <g id="patch_4">
    <path d="M 139.160638 288.908125 
L 151.119748 288.908125 
L 151.119748 105.964801 
L 139.160638 105.964801 
z
" clip-path="url(#pe9f02c12dd)" style="fill: #1f77b4"/>
   </g>
   <g id="patch_5">
    <path d="M 198.95619 288.908125 
L 210.915301 288.908125 
L 210.915301 83.365416 
L 198.95619 83.365416 
z
" clip-path="url(#pe9f02c12dd)" style="fill: #1f77b4"/>
   </g>
   <g id="patch_6">
    <path d="M 258.751743 288.908125 
L 270.710853 288.908125 
L 270.710853 73.507236 
L 258.751743 73.507236 
z
" clip-path="url(#pe9f02c12dd)" style="fill: #1f77b4"/>
   </g>
   <g id="patch_7">
    <path d="M 318.547295 288.908125 
L 330.506406 288.908125 
L 330.506406 101.91138 
L 318.547295 101.91138 
z
" clip-path="url(#pe9f02c12dd)" style="fill: #1f77b4"/>
   </g>
   <g id="patch_8">
    <path d="M 378.342848 288.908125 
L 390.301958 288.908125 
L 390.301958 81.500129 
L 378.342848 81.500129 
z
" clip-path="url(#pe9f02c12dd)" style="fill: #1f77b4"/>
   </g>
   <g id="patch_9">
    <path d="M 91.324196 288.908125 
L 103.283306 288.908125 
L 103.283306 120.569361 
L 91.324196 120.569361 
z
" clip-path="url(#pe9f02c12dd)" style="fill: #ff7f0e"/>
   </g>
   <g id="patch_10">
    <path d="M 151.119748 288.908125 
L 163.078859 288.908125 
L 163.078859 96.639955 
L 151.119748 96.639955 
z
" clip-path="url(#pe9f02c12dd)" style="fill: #ff7f0e"/>
   </g>
   <g id="patch_11">
    <path d="M 210.915301 288.908125 
L 222.874411 288.908125 
L 222.874411 108.117942 
L 210.915301 108.117942 
z
" clip-path="url(#pe9f02c12dd)" style="fill: #ff7f0e"/>
   </g>
   <g id="patch_12">
    <path d="M 270.710853 288.908125 
L 282.669964 288.908125 
L 282.669964 81.388173 
L 270.710853 81.388173 
z
" clip-path="url(#pe9f02c12dd)" style="fill: #ff7f0e"/>
   </g>
   <g id="patch_13">
    <path d="M 330.506406 288.908125 
L 342.465516 288.908125 
L 342.465516 102.758669 
L 330.506406 102.758669 
z
" clip-path="url(#pe9f02c12dd)" style="fill: #ff7f0e"/>
   </g>
   <g id="patch_14">
    <path d="M 390.301958 288.908125 
L 402.261069 288.908125 
L 402.261069 88.114802 
L 390.301958 88.114802 
z
" clip-path="url(#pe9f02c12dd)" style="fill: #ff7f0e"/>
   </g>
   <g id="patch_15">
    <path d="M 103.283306 288.908125 
L 115.242417 288.908125 
L 115.242417 120.611351 
L 103.283306 120.611351 
z
" clip-path="url(#pe9f02c12dd)" style="fill: #2ca02c"/>
   </g>
   <g id="patch_16">
    <path d="M 163.078859 288.908125 
L 175.037969 288.908125 
L 175.037969 131.791959 
L 163.078859 131.791959 
z
" clip-path="url(#pe9f02c12dd)" style="fill: #2ca02c"/>
   </g>
   <g id="patch_17">
    <path d="M 222.874411 288.908125 
L 234.833522 288.908125 
L 234.833522 117.203377 
L 222.874411 117.203377 
z
" clip-path="url(#pe9f02c12dd)" style="fill: #2ca02c"/>
   </g>
   <g id="patch_18">
    <path d="M 282.669964 288.908125 
L 294.629074 288.908125 
L 294.629074 97.213234 
L 282.669964 97.213234 
z
" clip-path="url(#pe9f02c12dd)" style="fill: #2ca02c"/>
   </g>
   <g id="patch_19">
    <path d="M 342.465516 288.908125 
L 354.424627 288.908125 
L 354.424627 109.508903 
L 342.465516 109.508903 
z
" clip-path="url(#pe9f02c12dd)" style="fill: #2ca02c"/>
   </g>
   <g id="patch_20">
    <path d="M 402.261069 288.908125 
L 414.220179 288.908125 
L 414.220179 75.087264 
L 402.261069 75.087264 
z
" clip-path="url(#pe9f02c12dd)" style="fill: #2ca02c"/>
   </g>
   <g id="patch_21">
    <path d="M 115.242417 288.908125 
L 127.201527 288.908125 
L 127.201527 106.093539 
L 115.242417 106.093539 
z
" clip-path="url(#pe9f02c12dd)" style="fill: #d62728"/>
   </g>
   <g id="patch_22">
    <path d="M 175.037969 288.908125 
L 186.99708 288.908125 
L 186.99708 125.220651 
L 175.037969 125.220651 
z
" clip-path="url(#pe9f02c12dd)" style="fill: #d62728"/>
   </g>
   <g id="patch_23">
    <path d="M 234.833522 288.908125 
L 246.792632 288.908125 
L 246.792632 114.830683 
L 234.833522 114.830683 
z
" clip-path="url(#pe9f02c12dd)" style="fill: #d62728"/>
   </g>
   <g id="patch_24">
    <path d="M 294.629074 288.908125 
L 306.588185 288.908125 
L 306.588185 94.3775 
L 294.629074 94.3775 
z
" clip-path="url(#pe9f02c12dd)" style="fill: #d62728"/>
   </g>
   <g id="patch_25">
    <path d="M 354.424627 288.908125 
L 366.383737 288.908125 
L 366.383737 92.602754 
L 354.424627 92.602754 
z
" clip-path="url(#pe9f02c12dd)" style="fill: #d62728"/>
   </g>
   <g id="patch_26">
    <path d="M 414.220179 288.908125 
L 426.17929 288.908125 
L 426.17929 67.377088 
L 414.220179 67.377088 
z
" clip-path="url(#pe9f02c12dd)" style="fill: #d62728"/>
   </g>
   <g id="matplotlib.axis_1">
    <g id="xtick_1">
     <g id="line2d_1">
      <defs>
       <path id="m681e4942bf" d="M 0 0 
L 0 3.5 
" style="stroke: #000000; stroke-width: 0.8"/>
      </defs>
      <g>
       <use xlink:href="#m681e4942bf" x="103.283306" y="288.908125" style="stroke: #000000; stroke-width: 0.8"/>
      </g>
     </g>
     <g id="text_1">
      <!-- 1 -->
      <g transform="translate(99.530806 307.428125) scale(0.16 -0.16)">
       <defs>
        <path id="STSongti-SC-Black-31" d="M 2464 365 
Q 2298 371 2045 377 
Q 1792 384 1523 384 
Q 1254 384 1001 377 
Q 749 371 582 365 
L 582 550 
L 979 608 
Q 1203 659 1203 858 
L 1203 3840 
L 442 3347 
L 333 3546 
Q 442 3616 608 3718 
Q 774 3821 960 3942 
Q 1146 4064 1331 4192 
Q 1517 4320 1670 4448 
L 1882 4448 
L 1882 858 
Q 1882 634 2106 602 
L 2464 550 
L 2464 365 
z
" transform="scale(0.015625)"/>
       </defs>
       <use xlink:href="#STSongti-SC-Black-31"/>
      </g>
     </g>
    </g>
    <g id="xtick_2">
     <g id="line2d_2">
      <g>
       <use xlink:href="#m681e4942bf" x="163.078859" y="288.908125" style="stroke: #000000; stroke-width: 0.8"/>
      </g>
     </g>
     <g id="text_2">
      <!-- 2 -->
      <g transform="translate(159.326359 307.428125) scale(0.16 -0.16)">
       <defs>
        <path id="STSongti-SC-Black-32" d="M 2726 365 
Q 2496 371 2227 377 
Q 1958 384 1542 384 
Q 1120 384 777 381 
Q 435 378 211 365 
Q 230 518 262 659 
Q 294 800 377 957 
Q 461 1114 605 1299 
Q 749 1485 992 1734 
L 1229 1978 
Q 1478 2227 1625 2412 
Q 1773 2598 1849 2748 
Q 1926 2899 1945 3033 
Q 1965 3168 1965 3322 
Q 1965 3622 1779 3801 
Q 1594 3981 1280 3981 
Q 954 3981 746 3769 
Q 538 3558 461 3162 
L 262 3238 
Q 352 3827 694 4137 
Q 1037 4448 1549 4448 
Q 1779 4448 1984 4384 
Q 2189 4320 2342 4195 
Q 2496 4070 2589 3888 
Q 2682 3706 2682 3469 
Q 2682 3219 2592 3008 
Q 2502 2797 2348 2608 
Q 2195 2419 1993 2246 
Q 1792 2074 1574 1907 
L 1382 1754 
Q 1216 1619 1030 1427 
Q 845 1235 685 979 
L 2074 979 
Q 2234 979 2317 1011 
Q 2400 1043 2448 1116 
Q 2496 1190 2531 1302 
Q 2566 1414 2624 1568 
L 2822 1568 
L 2726 365 
z
" transform="scale(0.015625)"/>
       </defs>
       <use xlink:href="#STSongti-SC-Black-32"/>
      </g>
     </g>
    </g>
    <g id="xtick_3">
     <g id="line2d_3">
      <g>
       <use xlink:href="#m681e4942bf" x="222.874411" y="288.908125" style="stroke: #000000; stroke-width: 0.8"/>
      </g>
     </g>
     <g id="text_3">
      <!-- 3 -->
      <g transform="translate(219.121911 307.428125) scale(0.16 -0.16)">
       <defs>
        <path id="STSongti-SC-Black-33" d="M 576 3430 
L 474 3526 
Q 550 3731 646 3900 
Q 742 4070 876 4192 
Q 1011 4314 1193 4381 
Q 1376 4448 1619 4448 
Q 1779 4448 1939 4409 
Q 2099 4371 2224 4288 
Q 2349 4205 2425 4083 
Q 2502 3962 2502 3789 
Q 2502 3539 2281 3289 
Q 2061 3040 1683 2822 
Q 1939 2842 2153 2771 
Q 2368 2701 2518 2560 
Q 2669 2419 2752 2214 
Q 2835 2010 2835 1760 
Q 2835 1446 2707 1174 
Q 2579 902 2355 704 
Q 2131 506 1833 394 
Q 1536 282 1203 282 
Q 762 282 518 403 
Q 275 525 275 717 
Q 275 787 323 854 
Q 371 922 457 950 
Q 544 979 653 950 
Q 762 922 890 800 
Q 986 704 1053 640 
Q 1120 576 1174 541 
Q 1229 506 1277 490 
Q 1325 474 1389 474 
Q 1581 474 1725 570 
Q 1869 666 1965 826 
Q 2061 986 2105 1184 
Q 2150 1382 2150 1587 
Q 2150 1997 1955 2198 
Q 1760 2400 1498 2400 
Q 1331 2400 1206 2345 
Q 1082 2291 954 2182 
L 845 2330 
Q 909 2387 979 2444 
Q 1050 2502 1126 2560 
Q 1478 2822 1676 3030 
Q 1875 3238 1875 3437 
Q 1875 3686 1731 3824 
Q 1587 3962 1306 3962 
Q 1101 3962 902 3843 
Q 704 3725 576 3430 
z
" transform="scale(0.015625)"/>
       </defs>
       <use xlink:href="#STSongti-SC-Black-33"/>
      </g>
     </g>
    </g>
    <g id="xtick_4">
     <g id="line2d_4">
      <g>
       <use xlink:href="#m681e4942bf" x="282.669964" y="288.908125" style="stroke: #000000; stroke-width: 0.8"/>
      </g>
     </g>
     <g id="text_4">
      <!-- 4 -->
      <g transform="translate(278.917464 307.428125) scale(0.16 -0.16)">
       <defs>
        <path id="STSongti-SC-Black-34" d="M 2086 4448 
L 2387 4448 
L 2387 1843 
L 2918 1843 
L 2918 1434 
L 2387 1434 
L 2387 282 
L 1670 282 
L 1670 1434 
L 122 1434 
L 122 1760 
L 966 2912 
Q 1254 3296 1529 3680 
Q 1805 4064 2086 4448 
z
M 1670 1843 
L 1670 3469 
Q 1453 3168 1289 2944 
Q 1126 2720 992 2537 
Q 858 2355 739 2188 
Q 621 2022 493 1843 
L 1670 1843 
z
" transform="scale(0.015625)"/>
       </defs>
       <use xlink:href="#STSongti-SC-Black-34"/>
      </g>
     </g>
    </g>
    <g id="xtick_5">
     <g id="line2d_5">
      <g>
       <use xlink:href="#m681e4942bf" x="342.465516" y="288.908125" style="stroke: #000000; stroke-width: 0.8"/>
      </g>
     </g>
     <g id="text_5">
      <!-- 5 -->
      <g transform="translate(338.713016 307.428125) scale(0.16 -0.16)">
       <defs>
        <path id="STSongti-SC-Black-35" d="M 2490 3763 
L 1536 3763 
Q 1286 3763 1094 3760 
Q 902 3757 877 3744 
L 819 2880 
Q 960 2950 1145 2982 
Q 1331 3014 1478 3014 
Q 1805 3014 2051 2908 
Q 2298 2803 2464 2627 
Q 2630 2451 2713 2220 
Q 2797 1990 2797 1741 
Q 2797 1414 2662 1145 
Q 2528 877 2310 685 
Q 2093 493 1817 387 
Q 1542 282 1254 282 
Q 1107 282 934 310 
Q 762 339 611 393 
Q 461 448 361 528 
Q 262 608 262 717 
Q 262 794 313 854 
Q 365 915 435 950 
Q 506 986 582 986 
Q 659 986 710 941 
Q 864 813 963 723 
Q 1062 634 1139 576 
Q 1216 518 1286 492 
Q 1357 467 1453 467 
Q 1632 467 1766 550 
Q 1901 634 1993 778 
Q 2086 922 2134 1114 
Q 2182 1306 2182 1523 
Q 2182 1728 2118 1897 
Q 2054 2067 1939 2192 
Q 1824 2317 1667 2387 
Q 1510 2458 1318 2458 
Q 1101 2458 957 2410 
Q 813 2362 723 2272 
L 614 2272 
L 736 4384 
L 1542 4384 
Q 1792 4384 1952 4384 
Q 2112 4384 2205 4400 
Q 2298 4416 2336 4451 
Q 2374 4486 2387 4557 
L 2547 4557 
L 2490 3763 
z
" transform="scale(0.015625)"/>
       </defs>
       <use xlink:href="#STSongti-SC-Black-35"/>
      </g>
     </g>
    </g>
    <g id="xtick_6">
     <g id="line2d_6">
      <g>
       <use xlink:href="#m681e4942bf" x="402.261069" y="288.908125" style="stroke: #000000; stroke-width: 0.8"/>
      </g>
     </g>
     <g id="text_6">
      <!-- 6 -->
      <g transform="translate(398.508569 307.428125) scale(0.16 -0.16)">
       <defs>
        <path id="STSongti-SC-Black-36" d="M 2458 4467 
L 2509 4346 
Q 2138 4141 1846 3926 
Q 1555 3712 1356 3430 
Q 1158 3149 1056 2761 
Q 954 2374 954 1824 
Q 954 1645 973 1414 
Q 992 1184 1053 976 
Q 1114 768 1235 627 
Q 1357 486 1562 486 
Q 1824 486 1987 739 
Q 2150 992 2150 1562 
Q 2150 2042 1996 2282 
Q 1843 2522 1555 2522 
Q 1434 2522 1318 2470 
L 1267 2637 
Q 1370 2682 1482 2704 
Q 1594 2726 1747 2726 
Q 2278 2726 2560 2425 
Q 2842 2125 2842 1626 
Q 2842 1318 2736 1072 
Q 2630 826 2451 650 
Q 2272 474 2035 378 
Q 1798 282 1530 282 
Q 1190 282 944 403 
Q 698 525 534 739 
Q 371 954 294 1242 
Q 218 1530 218 1862 
Q 218 2426 394 2864 
Q 570 3302 874 3622 
Q 1178 3942 1587 4150 
Q 1997 4358 2458 4467 
z
" transform="scale(0.015625)"/>
       </defs>
       <use xlink:href="#STSongti-SC-Black-36"/>
      </g>
     </g>
    </g>
    <g id="text_7">
     <!-- 线路层数 -->
     <g transform="translate(220.772188 326.530625) scale(0.16 -0.16)">
      <defs>
       <path id="STSongti-SC-Black-7ebf" d="M 4109 5005 
Q 4205 5011 4301 5011 
Q 4749 5011 5017 4873 
Q 5286 4736 5286 4512 
Q 5286 4378 5190 4250 
Q 5478 4090 5635 3971 
Q 5792 3853 5792 3763 
Q 5792 3674 5606 3635 
L 4000 3322 
Q 4026 2854 4051 2630 
L 4947 2829 
Q 5037 3072 5107 3238 
Q 5178 3405 5206 3440 
Q 5235 3475 5267 3475 
Q 5344 3475 5609 3312 
Q 5875 3149 5996 3062 
Q 6118 2976 6118 2889 
Q 6118 2803 5965 2771 
L 4083 2381 
Q 4179 1766 4339 1370 
Q 4768 1882 4947 2445 
Q 5389 2272 5625 2163 
Q 5862 2054 5891 2028 
Q 5920 2003 5920 1978 
Q 5920 1920 5782 1881 
Q 5645 1843 5491 1651 
Q 5075 1126 4685 794 
Q 4826 634 5027 512 
Q 5229 390 5315 390 
Q 5402 390 5459 428 
Q 5517 467 5629 694 
Q 5741 922 5843 1165 
Q 5946 1408 5974 1408 
Q 6003 1408 6003 1363 
Q 6003 1318 5990 1267 
Q 5875 826 5875 490 
Q 5875 154 6118 -166 
Q 6176 -250 6176 -358 
Q 6176 -467 6061 -553 
Q 5946 -640 5734 -640 
Q 5363 -640 4896 -384 
Q 4429 -128 4070 352 
Q 3526 19 2652 -237 
Q 1779 -493 1664 -493 
Q 1600 -493 1600 -454 
Q 1600 -416 1734 -365 
Q 2989 141 3789 813 
Q 3539 1344 3392 2234 
L 2694 2093 
Q 2579 2086 2470 1990 
L 2272 2298 
Q 2349 2291 2425 2291 
Q 2502 2291 2592 2310 
L 3354 2477 
Q 3296 2867 3264 3181 
L 2880 3104 
Q 2752 3085 2656 3002 
L 2541 3181 
Q 1914 2419 1267 1709 
L 2758 1760 
Q 2906 1760 2906 1718 
Q 2906 1677 2739 1632 
Q 1971 1414 1571 1270 
Q 1171 1126 774 928 
Q 717 896 672 896 
Q 627 896 611 918 
Q 595 941 483 1293 
Q 371 1645 371 1721 
Q 371 1798 499 1805 
Q 704 1811 889 1907 
Q 1075 2003 1196 2195 
Q 1318 2387 1574 2880 
Q 1018 2701 646 2464 
Q 589 2426 550 2426 
Q 512 2426 489 2461 
Q 467 2496 348 2816 
Q 230 3136 230 3200 
Q 230 3302 339 3315 
Q 448 3328 541 3379 
Q 634 3430 685 3500 
Q 736 3571 861 3910 
Q 986 4250 1059 4534 
Q 1133 4819 1197 5184 
Q 1574 5043 1878 4905 
Q 2182 4768 2214 4739 
Q 2246 4710 2246 4678 
Q 2246 4614 2112 4589 
Q 2054 4576 1990 4518 
Q 1926 4461 1558 4000 
Q 1190 3539 877 3162 
L 1702 3155 
Q 1933 3661 2086 4102 
Q 2304 4006 2624 3840 
Q 2944 3674 2976 3638 
Q 3008 3603 3008 3571 
Q 3008 3507 2915 3481 
Q 2822 3456 2656 3302 
L 3245 3411 
L 3117 5274 
Q 3398 5261 3715 5216 
Q 4032 5171 4089 5145 
Q 4147 5120 4147 5085 
Q 4147 5050 4109 5005 
z
M 4806 4032 
Q 4589 4090 4531 4269 
Q 4429 4589 4326 4704 
Q 4224 4819 4019 4915 
Q 4006 4909 3981 4883 
Q 3974 4614 3974 4291 
Q 3974 3968 3987 3558 
L 4685 3693 
Q 4749 3885 4806 4032 
z
M 256 448 
Q 1018 518 1734 659 
L 2842 870 
Q 2899 870 2899 835 
Q 2899 800 2829 768 
Q 1261 19 672 -365 
Q 614 -397 588 -397 
Q 563 -397 547 -377 
Q 531 -358 432 -102 
Q 333 154 256 448 
z
" transform="scale(0.015625)"/>
       <path id="STSongti-SC-Black-8def" d="M 2016 2925 
Q 1990 2938 1990 3021 
L 1990 3194 
L 1274 3194 
L 1274 3078 
Q 1274 3027 1232 2995 
Q 1190 2963 1107 2918 
Q 1024 2874 845 2858 
Q 666 2842 618 2842 
Q 570 2842 570 2893 
L 582 3174 
Q 595 3366 595 3526 
L 595 4506 
Q 595 4787 576 5062 
Q 973 4954 1293 4794 
L 1920 4794 
Q 2054 5075 2083 5107 
Q 2112 5139 2150 5139 
Q 2189 5139 2403 5004 
Q 2618 4870 2749 4771 
Q 2880 4672 2880 4627 
Q 2880 4563 2669 4486 
L 2669 3789 
Q 2669 3450 2675 3354 
L 2682 3174 
Q 2682 3136 2624 3091 
Q 2566 3046 2422 2992 
Q 2278 2938 2086 2912 
Q 2266 2918 2266 2844 
Q 2266 2771 2106 2682 
L 2106 1965 
L 2157 1965 
Q 2387 2330 2416 2362 
Q 2445 2394 2480 2394 
Q 2515 2394 2694 2262 
Q 2874 2131 3046 1952 
Q 3514 2336 3898 2822 
Q 3648 3136 3501 3546 
Q 3309 3322 3069 3101 
Q 2829 2880 2723 2803 
Q 2618 2726 2592 2726 
Q 2566 2726 2566 2755 
Q 2566 2784 2598 2829 
Q 3277 3718 3450 5280 
Q 3968 5184 4192 5120 
Q 4416 5056 4467 5021 
Q 4518 4986 4518 4954 
Q 4518 4902 4425 4867 
Q 4333 4832 4272 4758 
Q 4211 4685 4090 4442 
L 4666 4442 
Q 4838 4717 4876 4768 
Q 4915 4819 4966 4819 
Q 5018 4819 5274 4649 
Q 5530 4480 5699 4333 
Q 5869 4186 5869 4109 
Q 5869 4000 5651 3987 
Q 5587 3981 5532 3933 
Q 5478 3885 5241 3565 
Q 5005 3245 4736 2944 
Q 5056 2752 5398 2630 
Q 5741 2509 6291 2400 
Q 6387 2381 6387 2294 
Q 6387 2208 6294 2169 
Q 6202 2131 6080 1987 
Q 5958 1843 5869 1651 
Q 5824 1549 5766 1549 
Q 5677 1549 5120 1862 
Q 4563 2176 4250 2458 
Q 3808 2061 3264 1760 
Q 3533 1677 3706 1587 
L 4717 1587 
Q 4858 1824 4928 1824 
Q 4998 1824 5030 1805 
L 5350 1632 
Q 5638 1478 5683 1430 
Q 5728 1382 5728 1338 
Q 5728 1235 5536 1171 
L 5536 211 
Q 5536 -128 5542 -224 
L 5549 -403 
Q 5549 -486 5376 -560 
Q 5203 -634 4851 -634 
Q 4794 -634 4778 -614 
Q 4762 -595 4762 -525 
L 4762 -192 
L 3731 -192 
L 3731 -416 
Q 3731 -461 3696 -489 
Q 3661 -518 3571 -566 
Q 3482 -614 3293 -633 
Q 3104 -653 3056 -653 
Q 3008 -653 3008 -602 
L 3021 -320 
Q 3034 -128 3034 32 
L 3034 774 
Q 2099 384 1398 51 
Q 698 -282 582 -358 
Q 467 -435 438 -435 
Q 410 -435 394 -412 
Q 378 -390 294 -108 
Q 211 173 147 429 
Q 269 442 493 474 
L 493 1933 
Q 493 2272 480 2515 
Q 1018 2490 1158 2448 
Q 1299 2406 1299 2339 
Q 1299 2272 1158 2214 
L 1158 563 
L 1440 602 
L 1440 2413 
Q 1440 2726 1427 2963 
Q 1696 2957 2016 2925 
z
M 1990 3405 
L 1990 4582 
L 1382 4582 
Q 1350 4531 1274 4506 
L 1274 3405 
L 1990 3405 
z
M 3974 4230 
Q 3866 4032 3686 3789 
Q 3866 3546 4218 3283 
Q 4493 3718 4685 4230 
L 3974 4230 
z
M 3027 1638 
Q 2387 1357 2304 1357 
Q 2278 1357 2278 1376 
Q 2278 1414 2441 1516 
Q 2605 1619 2790 1754 
L 2106 1754 
L 2106 704 
L 3034 864 
L 3034 1280 
L 3027 1638 
z
M 3846 1376 
Q 3814 1306 3731 1280 
L 3731 19 
L 4762 19 
L 4762 1376 
L 3846 1376 
z
" transform="scale(0.015625)"/>
       <path id="STSongti-SC-Black-5c42" d="M 1907 4890 
L 4704 4890 
Q 4819 5114 4883 5206 
Q 4947 5299 4992 5299 
Q 5030 5299 5283 5136 
Q 5536 4973 5667 4861 
Q 5798 4749 5798 4704 
Q 5798 4634 5581 4557 
L 5581 3968 
L 5587 3635 
Q 5587 3565 5516 3523 
Q 5446 3482 5273 3450 
Q 5101 3418 4909 3418 
Q 4864 3418 4832 3466 
Q 4800 3514 4800 3552 
L 4800 3648 
L 1786 3648 
Q 1766 2726 1728 2166 
Q 1690 1606 1584 1212 
Q 1478 819 1283 496 
Q 1088 173 825 -73 
Q 563 -320 425 -406 
Q 288 -493 272 -493 
Q 256 -493 256 -480 
Q 256 -454 320 -378 
Q 621 -38 784 374 
Q 947 787 995 1270 
Q 1043 1754 1043 2842 
Q 1043 3930 1018 5210 
Q 1587 5037 1907 4890 
z
M 4800 3859 
L 4800 4678 
L 1830 4678 
Q 1805 4621 1805 4464 
Q 1805 4307 1792 3859 
L 4800 3859 
z
M 4307 2918 
Q 4384 3053 4486 3206 
Q 4589 3360 4617 3398 
Q 4646 3437 4678 3437 
Q 4736 3437 4931 3261 
Q 5126 3085 5273 2957 
Q 5421 2829 5421 2768 
Q 5421 2707 5293 2707 
L 2490 2707 
Q 2362 2707 2259 2637 
L 2093 2938 
Q 2246 2918 2413 2918 
L 4307 2918 
z
M 3066 1715 
L 2195 1715 
Q 2067 1715 1965 1645 
L 1798 1946 
Q 1952 1926 2118 1926 
L 4800 1926 
Q 5069 2464 5165 2464 
Q 5229 2464 5632 2166 
Q 6035 1869 6035 1773 
Q 6035 1715 5907 1715 
L 3744 1715 
Q 4166 1594 4166 1530 
Q 4166 1466 4067 1434 
Q 3968 1402 3760 1254 
Q 3552 1107 3366 940 
Q 3181 774 3021 675 
Q 2861 576 2534 422 
L 4864 518 
Q 4774 883 4403 1229 
Q 4320 1306 4320 1325 
Q 4320 1344 4339 1344 
Q 4416 1344 4784 1181 
Q 5152 1018 5347 861 
Q 5542 704 5676 509 
Q 5811 314 5811 134 
Q 5811 -102 5660 -284 
Q 5510 -467 5312 -467 
Q 5114 -467 4995 -326 
Q 4877 -186 4896 -13 
Q 4909 90 4905 182 
Q 4902 275 4896 358 
L 3277 -51 
Q 2208 -320 2137 -368 
Q 2067 -416 2025 -416 
Q 1984 -416 1949 -355 
Q 1914 -294 1789 38 
Q 1664 371 1664 429 
Q 1664 506 1715 509 
Q 1766 512 1910 512 
Q 2054 512 2185 550 
Q 2317 589 2384 659 
Q 2451 730 2620 950 
Q 2790 1171 2896 1353 
Q 3002 1536 3066 1715 
z
" transform="scale(0.015625)"/>
       <path id="STSongti-SC-Black-6570" d="M 2330 4051 
Q 2566 4378 2810 4973 
Q 3059 4877 3302 4729 
Q 3546 4582 3546 4515 
Q 3546 4448 3414 4435 
Q 3283 4422 3120 4336 
Q 2957 4250 2330 3827 
L 2330 3738 
L 2784 3738 
Q 3014 4141 3091 4141 
Q 3149 4141 3385 3920 
Q 3622 3699 3622 3612 
Q 3622 3526 3456 3526 
L 2330 3526 
L 2330 3373 
Q 2790 3290 3033 3120 
Q 3277 2950 3277 2771 
Q 3277 2592 3165 2467 
Q 3053 2342 2928 2342 
Q 2803 2342 2736 2406 
Q 2669 2470 2630 2637 
Q 2560 2989 2330 3226 
L 2330 3053 
Q 2330 2842 2342 2605 
L 2349 2387 
Q 2349 2336 2320 2313 
Q 2291 2291 2118 2208 
Q 2285 2131 2304 2102 
Q 2323 2074 2323 2054 
Q 2323 1990 2227 1971 
Q 2150 1952 2010 1728 
L 2381 1728 
Q 2496 1939 2544 2003 
Q 2592 2067 2637 2067 
Q 2682 2067 3066 1843 
Q 3834 3072 3898 5261 
Q 4294 5210 4569 5142 
Q 4845 5075 4899 5043 
Q 4954 5011 4954 4966 
Q 4954 4909 4880 4873 
Q 4806 4838 4761 4742 
Q 4717 4646 4617 4352 
Q 4518 4058 4346 3648 
L 5184 3648 
Q 5466 4192 5552 4192 
Q 5638 4192 5856 4009 
Q 6074 3827 6182 3721 
Q 6291 3616 6291 3539 
Q 6291 3437 6170 3437 
L 5466 3437 
Q 5811 3366 5811 3264 
Q 5811 3206 5737 3171 
Q 5664 3136 5622 3024 
Q 5581 2912 5501 2541 
Q 5421 2170 5232 1674 
Q 5043 1178 4851 890 
Q 5325 454 6246 141 
Q 6323 115 6323 83 
Q 6323 51 6214 32 
Q 6106 13 5872 -179 
Q 5638 -371 5517 -550 
Q 5478 -608 5433 -608 
Q 5389 -608 5347 -582 
Q 5306 -557 5088 -361 
Q 4870 -166 4700 19 
Q 4531 205 4403 384 
Q 3866 -141 3232 -441 
Q 2598 -742 2490 -742 
Q 2458 -742 2458 -716 
Q 2458 -691 2534 -646 
Q 3693 0 4166 762 
Q 3808 1446 3776 2566 
Q 3520 2163 3168 1773 
Q 3398 1651 3398 1568 
Q 3398 1485 3299 1449 
Q 3200 1414 3165 1379 
Q 3130 1344 3024 1123 
Q 2918 902 2746 659 
Q 2854 621 3014 525 
Q 3174 429 3225 304 
Q 3277 179 3277 60 
Q 3277 -58 3158 -170 
Q 3040 -282 2902 -282 
Q 2765 -282 2592 -109 
Q 2419 64 2285 173 
Q 1830 -192 1126 -419 
Q 422 -646 307 -646 
Q 262 -646 262 -624 
Q 262 -602 333 -576 
Q 1306 -198 1862 448 
Q 1498 634 787 800 
Q 1011 1184 1178 1517 
L 755 1517 
Q 627 1517 525 1446 
L 352 1747 
Q 506 1728 672 1728 
L 1280 1728 
Q 1376 1920 1574 2394 
L 1645 2374 
L 1645 3021 
Q 1325 2554 848 2214 
Q 371 1875 288 1875 
Q 275 1875 275 1888 
Q 275 1914 358 1997 
Q 960 2560 1299 3526 
L 755 3526 
Q 589 3526 480 3494 
L 371 3770 
Q 506 3738 691 3738 
L 1645 3738 
L 1645 4698 
Q 1645 5018 1632 5267 
Q 1978 5235 2179 5196 
Q 2381 5158 2419 5129 
Q 2458 5101 2458 5053 
Q 2458 5005 2330 4954 
L 2330 4051 
z
M 4851 3437 
L 4250 3437 
Q 4141 3181 3942 2842 
Q 4058 1952 4454 1357 
Q 4787 2176 4851 3437 
z
M 1888 1517 
L 1549 928 
Q 1850 902 2144 838 
Q 2330 1165 2413 1517 
L 1888 1517 
z
M 563 4806 
Q 947 4806 1238 4646 
Q 1530 4486 1530 4294 
Q 1530 4102 1437 3984 
Q 1344 3866 1203 3866 
Q 1062 3866 998 3926 
Q 934 3987 922 4134 
Q 883 4518 557 4742 
Q 512 4774 512 4790 
Q 512 4806 563 4806 
z
" transform="scale(0.015625)"/>
      </defs>
      <use xlink:href="#STSongti-SC-Black-7ebf"/>
      <use xlink:href="#STSongti-SC-Black-8def" transform="translate(99.999985 0)"/>
      <use xlink:href="#STSongti-SC-Black-5c42" transform="translate(199.999969 0)"/>
      <use xlink:href="#STSongti-SC-Black-6570" transform="translate(299.999954 0)"/>
     </g>
    </g>
   </g>
   <g id="matplotlib.axis_2">
    <g id="ytick_1">
     <g id="line2d_7">
      <defs>
       <path id="m963e0469d2" d="M 0 0 
L -3.5 0 
" style="stroke: #000000; stroke-width: 0.8"/>
      </defs>
      <g>
       <use xlink:href="#m963e0469d2" x="62.024375" y="288.908125" style="stroke: #000000; stroke-width: 0.8"/>
      </g>
     </g>
     <g id="text_8">
      <!-- 0.0 -->
      <g transform="translate(36.509375 294.668125) scale(0.16 -0.16)">
       <defs>
        <path id="STSongti-SC-Black-30" d="M 1517 4448 
Q 1792 4448 2045 4285 
Q 2298 4122 2486 3840 
Q 2675 3558 2787 3177 
Q 2899 2797 2899 2362 
Q 2899 1933 2790 1555 
Q 2682 1178 2493 893 
Q 2304 608 2054 445 
Q 1805 282 1523 282 
Q 1248 282 995 442 
Q 742 602 550 880 
Q 358 1158 246 1539 
Q 134 1920 134 2355 
Q 134 2797 246 3181 
Q 358 3565 547 3846 
Q 736 4128 985 4288 
Q 1235 4448 1517 4448 
z
M 1517 518 
Q 1869 518 1997 966 
Q 2125 1414 2125 2362 
Q 2125 3309 1993 3760 
Q 1862 4211 1517 4211 
Q 1171 4211 1040 3763 
Q 909 3315 909 2362 
Q 909 518 1517 518 
z
" transform="scale(0.015625)"/>
        <path id="STSongti-SC-Black-2e" d="M 704 294 
Q 538 294 422 409 
Q 307 525 307 691 
Q 307 858 422 973 
Q 538 1088 704 1088 
Q 870 1088 985 973 
Q 1101 858 1101 691 
Q 1101 525 985 409 
Q 870 294 704 294 
z
" transform="scale(0.015625)"/>
       </defs>
       <use xlink:href="#STSongti-SC-Black-30"/>
       <use xlink:href="#STSongti-SC-Black-2e" transform="translate(46.899994 0)"/>
       <use xlink:href="#STSongti-SC-Black-30" transform="translate(68.799988 0)"/>
      </g>
     </g>
    </g>
    <g id="ytick_2">
     <g id="line2d_8">
      <g>
       <use xlink:href="#m963e0469d2" x="62.024375" y="235.7345" style="stroke: #000000; stroke-width: 0.8"/>
      </g>
     </g>
     <g id="text_9">
      <!-- 0.2 -->
      <g transform="translate(36.509375 241.4945) scale(0.16 -0.16)">
       <use xlink:href="#STSongti-SC-Black-30"/>
       <use xlink:href="#STSongti-SC-Black-2e" transform="translate(46.899994 0)"/>
       <use xlink:href="#STSongti-SC-Black-32" transform="translate(68.799988 0)"/>
      </g>
     </g>
    </g>
    <g id="ytick_3">
     <g id="line2d_9">
      <g>
       <use xlink:href="#m963e0469d2" x="62.024375" y="182.560875" style="stroke: #000000; stroke-width: 0.8"/>
      </g>
     </g>
     <g id="text_10">
      <!-- 0.4 -->
      <g transform="translate(36.509375 188.320875) scale(0.16 -0.16)">
       <use xlink:href="#STSongti-SC-Black-30"/>
       <use xlink:href="#STSongti-SC-Black-2e" transform="translate(46.899994 0)"/>
       <use xlink:href="#STSongti-SC-Black-34" transform="translate(68.799988 0)"/>
      </g>
     </g>
    </g>
    <g id="ytick_4">
     <g id="line2d_10">
      <g>
       <use xlink:href="#m963e0469d2" x="62.024375" y="129.38725" style="stroke: #000000; stroke-width: 0.8"/>
      </g>
     </g>
     <g id="text_11">
      <!-- 0.6 -->
      <g transform="translate(36.509375 135.14725) scale(0.16 -0.16)">
       <use xlink:href="#STSongti-SC-Black-30"/>
       <use xlink:href="#STSongti-SC-Black-2e" transform="translate(46.899994 0)"/>
       <use xlink:href="#STSongti-SC-Black-36" transform="translate(68.799988 0)"/>
      </g>
     </g>
    </g>
    <g id="ytick_5">
     <g id="line2d_11">
      <g>
       <use xlink:href="#m963e0469d2" x="62.024375" y="76.213625" style="stroke: #000000; stroke-width: 0.8"/>
      </g>
     </g>
     <g id="text_12">
      <!-- 0.8 -->
      <g transform="translate(36.509375 81.973625) scale(0.16 -0.16)">
       <defs>
        <path id="STSongti-SC-Black-38" d="M 1069 2368 
Q 282 2758 282 3424 
Q 282 3622 368 3804 
Q 454 3987 617 4131 
Q 781 4275 1005 4361 
Q 1229 4448 1510 4448 
Q 1760 4448 1968 4377 
Q 2176 4307 2326 4185 
Q 2477 4064 2560 3901 
Q 2643 3738 2643 3552 
Q 2643 3366 2588 3232 
Q 2534 3098 2438 2992 
Q 2342 2886 2201 2793 
Q 2061 2701 1888 2598 
Q 2202 2445 2381 2297 
Q 2560 2150 2646 2006 
Q 2733 1862 2752 1718 
Q 2771 1574 2771 1434 
Q 2771 1190 2665 979 
Q 2560 768 2384 614 
Q 2208 461 1971 371 
Q 1734 282 1466 282 
Q 1184 282 950 362 
Q 717 442 550 576 
Q 384 710 294 892 
Q 205 1075 205 1280 
Q 205 1434 246 1584 
Q 288 1734 390 1875 
Q 493 2016 659 2137 
Q 826 2259 1069 2368 
z
M 1683 2707 
Q 1920 2854 2022 3046 
Q 2125 3238 2125 3526 
Q 2125 3827 1968 4019 
Q 1811 4211 1472 4211 
Q 1158 4211 1011 4035 
Q 864 3859 864 3597 
Q 864 3334 1046 3126 
Q 1229 2918 1683 2707 
z
M 1254 2266 
Q 1107 2176 1011 2077 
Q 915 1978 860 1866 
Q 806 1754 784 1622 
Q 762 1491 762 1331 
Q 762 941 976 710 
Q 1190 480 1517 480 
Q 2163 480 2163 1235 
Q 2163 1414 2108 1555 
Q 2054 1696 1942 1817 
Q 1830 1939 1657 2048 
Q 1485 2157 1254 2266 
z
" transform="scale(0.015625)"/>
       </defs>
       <use xlink:href="#STSongti-SC-Black-30"/>
       <use xlink:href="#STSongti-SC-Black-2e" transform="translate(46.899994 0)"/>
       <use xlink:href="#STSongti-SC-Black-38" transform="translate(68.799988 0)"/>
      </g>
     </g>
    </g>
    <g id="ytick_6">
     <g id="line2d_12">
      <g>
       <use xlink:href="#m963e0469d2" x="62.024375" y="23.04" style="stroke: #000000; stroke-width: 0.8"/>
      </g>
     </g>
     <g id="text_13">
      <!-- 1.0 -->
      <g transform="translate(36.509375 28.8) scale(0.16 -0.16)">
       <use xlink:href="#STSongti-SC-Black-31"/>
       <use xlink:href="#STSongti-SC-Black-2e" transform="translate(46.899994 0)"/>
       <use xlink:href="#STSongti-SC-Black-30" transform="translate(68.799988 0)"/>
      </g>
     </g>
    </g>
    <g id="text_14">
     <!-- 测量到可行解的概率 -->
     <g transform="translate(30.284375 227.974063) rotate(-90) scale(0.16 -0.16)">
      <defs>
       <path id="STSongti-SC-Black-6d4b" d="M 4365 192 
Q 4390 -32 4272 -176 
Q 4154 -320 3978 -320 
Q 3802 -320 3696 -227 
Q 3590 -134 3584 13 
Q 3571 429 3472 617 
Q 3373 806 3187 915 
Q 2918 358 2582 64 
Q 2246 -230 1779 -396 
Q 1312 -563 1235 -563 
Q 1190 -563 1190 -537 
Q 1190 -512 1254 -480 
Q 1811 -179 2137 150 
Q 2464 480 2627 893 
Q 2790 1306 2816 1754 
Q 2842 2202 2829 4166 
Q 3213 4134 3373 4099 
Q 3533 4064 3533 4019 
Q 3533 3974 3494 3936 
Q 3456 3898 3446 3846 
Q 3437 3795 3437 3642 
L 3443 2829 
Q 3443 2061 3398 1673 
Q 3354 1286 3232 1018 
Q 4243 762 4352 237 
Q 4640 224 4896 224 
Q 5152 224 5251 285 
Q 5350 346 5350 531 
L 5350 4672 
Q 5350 4992 5338 5242 
Q 5760 5210 5971 5165 
Q 6182 5120 6182 5056 
Q 6182 4992 6029 4915 
L 6029 141 
Q 6029 -154 5923 -298 
Q 5818 -442 5552 -512 
Q 5286 -582 5184 -582 
Q 5011 -582 4992 -352 
Q 4973 -122 4835 3 
Q 4698 128 4365 192 
z
M 1606 4448 
Q 1606 4256 1484 4118 
Q 1363 3981 1165 3981 
Q 1082 3981 1005 4025 
Q 928 4070 883 4140 
Q 838 4211 838 4288 
L 845 4442 
Q 845 4659 787 4780 
Q 730 4902 538 5018 
Q 486 5050 486 5075 
Q 486 5101 582 5101 
Q 1037 5101 1321 4915 
Q 1606 4730 1606 4448 
z
M 2611 4800 
L 3526 4800 
Q 3597 4922 3661 5011 
Q 3725 5101 3770 5101 
Q 3840 5101 4121 4915 
Q 4403 4730 4403 4653 
Q 4403 4576 4224 4493 
L 4224 2016 
Q 4224 1715 4230 1600 
L 4237 1376 
Q 4237 1261 4038 1206 
Q 3840 1152 3680 1152 
Q 3616 1152 3616 1261 
L 3616 4589 
L 2682 4589 
Q 2669 4544 2598 4518 
L 2598 1286 
Q 2598 1235 2579 1209 
Q 2560 1184 2473 1142 
Q 2387 1101 2281 1081 
Q 2176 1062 2035 1062 
Q 1978 1062 1978 1114 
L 1990 1414 
Q 2003 1728 2003 1984 
L 2003 4397 
Q 2003 4774 1990 5043 
Q 2330 4966 2611 4800 
z
M 5075 4128 
L 5075 1760 
L 5088 1184 
Q 5088 1120 5062 1091 
Q 5037 1062 4899 1017 
Q 4762 973 4563 973 
Q 4480 973 4480 1030 
L 4493 1274 
Q 4499 1562 4499 1805 
L 4499 3885 
Q 4499 4173 4486 4397 
Q 4870 4378 5027 4349 
Q 5184 4320 5184 4262 
Q 5184 4205 5075 4128 
z
M 1907 4224 
L 1395 2259 
Q 1261 1709 1261 1398 
Q 1261 1088 1376 499 
Q 1408 339 1408 198 
Q 1408 -90 1270 -246 
Q 1133 -403 890 -403 
Q 480 -403 480 -13 
Q 480 128 569 470 
Q 659 813 659 1027 
Q 659 1242 556 1354 
Q 454 1466 179 1542 
Q 128 1555 128 1580 
Q 128 1606 265 1606 
Q 403 1606 537 1638 
Q 672 1670 777 1756 
Q 883 1843 956 1980 
Q 1030 2118 1158 2464 
L 1824 4269 
Q 1850 4352 1882 4352 
Q 1914 4352 1914 4304 
Q 1914 4256 1907 4224 
z
M 1274 3040 
Q 1274 2835 1152 2710 
Q 1030 2586 883 2586 
Q 736 2586 633 2698 
Q 531 2810 540 2922 
Q 550 3034 550 3158 
Q 550 3283 502 3379 
Q 454 3475 301 3546 
Q 256 3565 256 3590 
Q 256 3616 371 3616 
Q 806 3616 1040 3462 
Q 1274 3309 1274 3040 
z
" transform="scale(0.015625)"/>
       <path id="STSongti-SC-Black-91cf" d="M 1984 4998 
L 4339 4998 
Q 4448 5171 4521 5257 
Q 4595 5344 4646 5344 
Q 4730 5344 5069 5107 
Q 5408 4870 5408 4787 
Q 5408 4704 5171 4602 
L 5171 4166 
L 5184 3578 
Q 5184 3482 5129 3424 
Q 5075 3366 4912 3312 
Q 4749 3258 4525 3258 
Q 4403 3258 4397 3398 
L 1971 3398 
Q 1971 3347 1801 3276 
Q 1632 3206 1331 3206 
Q 1242 3206 1242 3277 
L 1254 3565 
Q 1267 3757 1267 3917 
L 1267 4685 
Q 1267 4966 1248 5242 
Q 1677 5126 1984 4998 
z
M 4397 4333 
L 4397 4787 
L 2099 4787 
Q 2074 4717 1978 4672 
L 1978 4333 
L 4397 4333 
z
M 4397 3610 
L 4397 4122 
L 1978 4122 
L 1978 3610 
L 4397 3610 
z
M 4736 2906 
L 634 2906 
Q 506 2906 403 2835 
L 237 3136 
Q 390 3117 557 3117 
L 5101 3117 
Q 5190 3283 5283 3430 
Q 5376 3578 5408 3616 
Q 5440 3654 5491 3654 
Q 5542 3654 5741 3488 
L 6106 3194 
Q 6259 3059 6259 2982 
Q 6259 2906 6074 2906 
L 4979 2906 
Q 5562 2534 5562 2432 
Q 5562 2330 5357 2259 
L 5357 1619 
Q 5357 1434 5366 1293 
Q 5376 1152 5376 1120 
Q 5376 1088 5344 1053 
Q 5312 1018 5107 934 
Q 5651 499 5651 378 
Q 5651 314 5510 314 
L 3552 314 
L 3552 -186 
L 5094 -186 
Q 5254 83 5331 169 
Q 5408 256 5453 256 
Q 5498 256 5709 115 
Q 5920 -26 6061 -144 
Q 6202 -262 6202 -329 
Q 6202 -397 6048 -397 
L 858 -397 
Q 730 -397 627 -467 
L 461 -166 
Q 614 -186 781 -186 
L 2835 -186 
L 2835 314 
L 1338 314 
Q 1210 314 1107 243 
L 941 544 
Q 1094 525 1261 525 
L 2835 525 
L 2835 960 
L 1792 960 
Q 1792 883 1757 844 
Q 1722 806 1555 764 
Q 1389 723 1165 723 
Q 1069 723 1078 848 
Q 1088 973 1088 1363 
L 1088 2291 
Q 1088 2560 1069 2835 
Q 1421 2752 1747 2630 
L 4570 2630 
Q 4659 2803 4736 2906 
z
M 2835 2419 
L 1939 2419 
Q 1907 2310 1792 2266 
L 1792 1894 
L 2835 1894 
L 2835 2419 
z
M 4595 1894 
L 4595 2419 
L 3674 2419 
Q 3642 2330 3552 2285 
L 3552 1894 
L 4595 1894 
z
M 2835 1683 
L 1792 1683 
L 1792 1171 
L 2835 1171 
L 2835 1683 
z
M 4595 1171 
L 4595 1683 
L 3552 1683 
L 3552 1171 
L 4595 1171 
z
M 4928 890 
Q 4794 877 4701 877 
Q 4608 877 4595 960 
L 3552 960 
L 3552 525 
L 4704 525 
Q 4787 685 4928 890 
z
" transform="scale(0.015625)"/>
       <path id="STSongti-SC-Black-5230" d="M 1818 4608 
L 730 4608 
Q 602 4608 499 4538 
L 333 4838 
Q 486 4819 653 4819 
L 2829 4819 
L 3091 5210 
Q 3136 5274 3181 5274 
Q 3258 5274 3574 4995 
Q 3891 4717 3891 4662 
Q 3891 4608 3782 4608 
L 2266 4608 
Q 2438 4544 2598 4467 
Q 2758 4390 2787 4361 
Q 2816 4333 2816 4301 
Q 2816 4224 2675 4205 
Q 2374 4166 1293 3258 
L 2893 3302 
Q 2778 3661 2522 3878 
Q 2445 3942 2445 3961 
Q 2445 3981 2477 3981 
Q 2573 3981 2985 3846 
Q 3398 3712 3555 3485 
Q 3712 3258 3712 3075 
Q 3712 2893 3600 2761 
Q 3488 2630 3328 2630 
Q 3168 2630 3062 2729 
Q 2957 2829 2950 2989 
Q 2950 3034 2938 3110 
Q 2272 2938 1856 2842 
Q 2285 2803 2448 2764 
Q 2611 2726 2611 2656 
Q 2611 2573 2464 2547 
L 2464 1818 
L 2733 1818 
Q 2938 2189 2979 2237 
Q 3021 2285 3059 2285 
Q 3149 2285 3443 2006 
Q 3738 1728 3738 1667 
Q 3738 1606 3622 1606 
L 2464 1606 
L 2464 666 
Q 3194 717 3517 749 
Q 3840 781 3881 781 
Q 3923 781 3923 761 
Q 3923 742 3782 698 
L 2528 301 
Q 922 -205 790 -265 
Q 659 -326 633 -326 
Q 608 -326 592 -307 
Q 576 -288 499 -67 
Q 422 154 294 582 
Q 781 589 1709 627 
L 1709 1606 
L 819 1606 
Q 691 1606 589 1536 
L 422 1837 
Q 576 1818 742 1818 
L 1709 1818 
L 1709 2285 
Q 1709 2522 1696 2797 
Q 909 2592 806 2560 
Q 704 2528 665 2528 
Q 627 2528 617 2550 
Q 608 2573 566 2777 
Q 525 2982 506 3072 
L 467 3226 
Q 467 3270 563 3277 
Q 813 3290 947 3408 
Q 1082 3526 1331 3830 
Q 1581 4134 1818 4608 
z
M 5120 5274 
Q 5466 5254 5706 5216 
Q 5946 5178 5994 5152 
Q 6042 5126 6042 5075 
Q 6042 5024 5926 4947 
L 5926 6 
Q 5926 -294 5689 -460 
Q 5453 -627 5011 -627 
Q 4915 -627 4860 -601 
Q 4806 -576 4794 -474 
Q 4749 -90 4192 96 
Q 4083 134 4083 150 
Q 4083 166 4211 166 
Q 4685 166 4861 192 
Q 5037 218 5085 298 
Q 5133 378 5133 602 
L 5133 4704 
Q 5133 5024 5120 5274 
z
M 4691 4282 
L 4691 1805 
L 4704 1229 
Q 4704 1171 4681 1142 
Q 4659 1114 4489 1056 
Q 4320 998 4019 998 
Q 3968 998 3968 1056 
L 3981 1299 
Q 3987 1587 3987 1830 
L 3987 4070 
Q 3987 4358 3974 4582 
Q 4845 4544 4845 4390 
Q 4845 4326 4691 4282 
z
" transform="scale(0.015625)"/>
       <path id="STSongti-SC-Black-53ef" d="M 4237 4346 
L 653 4346 
Q 525 4346 422 4275 
L 256 4576 
Q 410 4557 576 4557 
L 4992 4557 
Q 5190 4883 5276 4988 
Q 5363 5094 5402 5094 
Q 5478 5094 5827 4790 
Q 6176 4486 6176 4403 
Q 6176 4346 6048 4346 
L 5171 4346 
Q 5190 4307 5043 4218 
L 5043 243 
Q 5043 -70 4905 -256 
Q 4768 -442 4451 -544 
Q 4134 -646 3958 -646 
Q 3782 -646 3776 -518 
Q 3744 19 2982 160 
Q 2925 166 2925 198 
Q 2925 230 2989 230 
L 3482 218 
Q 3814 218 3974 253 
Q 4134 288 4185 355 
Q 4237 422 4237 550 
L 4237 4346 
z
M 1843 3450 
L 2752 3450 
Q 2918 3738 2953 3782 
Q 2989 3827 3030 3827 
Q 3072 3827 3216 3753 
Q 3360 3680 3555 3549 
Q 3750 3418 3785 3379 
Q 3821 3341 3821 3302 
Q 3821 3200 3610 3142 
L 3610 1555 
Q 3610 1446 3616 1363 
L 3629 1222 
Q 3629 1184 3606 1165 
Q 3584 1146 3446 1094 
Q 3309 1043 3152 1027 
Q 2995 1011 2937 1011 
Q 2880 1011 2864 1030 
Q 2848 1050 2848 1107 
L 2848 1446 
L 1805 1446 
L 1805 1069 
Q 1805 1030 1789 1011 
Q 1773 992 1661 953 
Q 1549 915 1382 886 
Q 1216 858 1088 858 
Q 1043 858 1050 922 
Q 1062 1069 1062 1395 
L 1062 3206 
Q 1062 3475 1043 3750 
Q 1478 3642 1843 3450 
z
M 2848 1658 
L 2848 3238 
L 1965 3238 
Q 1907 3162 1805 3123 
L 1805 1658 
L 2848 1658 
z
" transform="scale(0.015625)"/>
       <path id="STSongti-SC-Black-884c" d="M 1875 5286 
Q 2221 5120 2473 4969 
Q 2726 4819 2764 4777 
Q 2803 4736 2803 4698 
Q 2803 4634 2701 4614 
Q 2509 4589 2246 4371 
Q 1882 4070 1219 3708 
Q 557 3347 461 3347 
Q 435 3347 435 3372 
Q 435 3398 518 3475 
Q 1101 4006 1379 4400 
Q 1658 4794 1875 5286 
z
M 4787 4538 
Q 4915 4781 5017 4921 
Q 5120 5062 5165 5062 
Q 5235 5062 5593 4758 
Q 5952 4454 5952 4390 
Q 5952 4326 5824 4326 
L 3514 4326 
Q 3386 4326 3283 4256 
L 3117 4557 
Q 3270 4538 3437 4538 
L 4787 4538 
z
M 1312 2003 
Q 998 1779 694 1596 
Q 390 1414 358 1398 
Q 326 1382 310 1382 
Q 294 1382 294 1404 
Q 294 1427 358 1498 
Q 1024 2240 1360 2768 
Q 1696 3296 1971 3962 
Q 2176 3885 2518 3661 
Q 2861 3437 2880 3414 
Q 2899 3392 2899 3353 
Q 2899 3315 2803 3283 
Q 2566 3213 2486 3097 
Q 2406 2982 2061 2630 
Q 2240 2573 2240 2512 
Q 2240 2451 2106 2387 
L 2106 -435 
Q 2106 -493 2074 -528 
Q 2042 -563 1757 -630 
Q 1472 -698 1331 -698 
Q 1286 -698 1286 -634 
L 1306 -32 
Q 1312 250 1312 499 
L 1312 2003 
z
M 4262 2771 
L 2918 2771 
Q 2790 2771 2688 2701 
L 2522 3002 
Q 2675 2982 2842 2982 
L 5197 2982 
Q 5402 3315 5466 3401 
Q 5530 3488 5574 3488 
Q 5658 3488 6006 3200 
Q 6355 2912 6355 2841 
Q 6355 2771 6227 2771 
L 5197 2771 
Q 5190 2714 5133 2637 
L 5133 13 
Q 5133 -301 5062 -448 
Q 4992 -595 4729 -665 
Q 4467 -736 4013 -736 
Q 3917 -736 3849 -681 
Q 3782 -627 3782 -550 
Q 3782 -326 3660 -220 
Q 3539 -115 3258 -58 
Q 3187 -45 3187 -13 
Q 3187 19 3366 19 
Q 3834 19 4048 73 
Q 4262 128 4262 269 
L 4262 2771 
z
" transform="scale(0.015625)"/>
       <path id="STSongti-SC-Black-89e3" d="M 736 3482 
Q 250 3059 221 3036 
Q 192 3014 179 3014 
Q 166 3014 166 3033 
Q 166 3053 211 3110 
Q 608 3642 809 4134 
Q 1011 4627 1139 5338 
Q 1504 5280 1782 5203 
Q 2061 5126 2109 5094 
Q 2157 5062 2157 5024 
Q 2157 4960 2035 4941 
Q 1952 4922 1885 4826 
Q 1818 4730 1626 4467 
L 2227 4467 
Q 2451 4877 2534 4877 
Q 2573 4877 2720 4784 
Q 2867 4691 3052 4544 
Q 3238 4397 3273 4349 
Q 3309 4301 3309 4256 
Q 3309 4211 3270 4172 
Q 3232 4134 3149 4141 
L 3072 4147 
Q 2938 4147 2758 4025 
Q 2579 3904 2067 3456 
L 2560 3456 
Q 2733 3763 2803 3763 
Q 2835 3763 2960 3683 
Q 3085 3603 3251 3481 
Q 3418 3360 3450 3321 
Q 3482 3283 3482 3251 
Q 3482 3168 3290 3117 
L 3290 2854 
Q 3955 3334 3987 4595 
L 3654 4595 
Q 3526 4595 3424 4525 
L 3258 4826 
Q 3411 4806 3578 4806 
L 5146 4806 
Q 5267 4986 5344 5082 
Q 5421 5178 5459 5178 
Q 5523 5178 5891 4950 
Q 6259 4723 6259 4627 
Q 6259 4531 6029 4480 
Q 5907 3494 5824 3280 
Q 5741 3066 5261 2938 
Q 5370 2886 5370 2819 
Q 5370 2752 5184 2694 
L 5184 2112 
L 5293 2112 
Q 5517 2528 5594 2528 
Q 5651 2528 5894 2323 
Q 6138 2118 6138 2016 
Q 6138 1901 5984 1901 
L 5184 1901 
L 5184 1190 
L 5370 1190 
Q 5421 1286 5536 1446 
Q 5651 1606 5673 1632 
Q 5696 1658 5728 1658 
Q 5798 1658 6054 1405 
Q 6310 1152 6310 1065 
Q 6310 979 6118 979 
L 5184 979 
L 5184 179 
Q 5184 -32 5190 -269 
L 5203 -486 
Q 5203 -589 4972 -649 
Q 4742 -710 4627 -710 
Q 4512 -710 4480 -694 
Q 4448 -678 4448 -602 
L 4461 -333 
Q 4467 -58 4467 179 
L 4467 979 
L 3290 979 
L 3290 211 
Q 3290 -70 3270 -201 
Q 3251 -333 3184 -403 
Q 3117 -474 2934 -525 
Q 2752 -576 2659 -576 
Q 2566 -576 2547 -454 
Q 2496 -166 2310 -45 
Q 2208 -186 1824 -186 
Q 1760 -186 1718 -141 
Q 1677 -96 1677 -26 
L 1683 192 
Q 1690 314 1690 672 
L 1690 1242 
L 1325 1242 
Q 1261 710 1059 316 
Q 858 -77 547 -393 
Q 237 -710 186 -710 
Q 179 -710 179 -698 
Q 179 -678 224 -614 
Q 550 -173 656 441 
Q 762 1056 762 1837 
Q 762 2618 736 3482 
z
M 4390 3635 
Q 4736 3597 4912 3597 
Q 5088 3597 5136 3677 
Q 5184 3757 5225 4009 
Q 5267 4262 5306 4595 
L 4774 4595 
Q 4800 4550 4704 4499 
Q 4582 3936 4390 3635 
z
M 1459 4256 
Q 1235 3974 883 3622 
Q 1248 3520 1370 3456 
L 1920 3456 
Q 2074 3795 2234 4256 
L 1459 4256 
z
M 4883 3021 
Q 4890 3078 4890 3123 
Q 4890 3302 4758 3392 
Q 4627 3482 4358 3578 
Q 4109 3226 3578 2918 
Q 4237 2771 4297 2745 
Q 4358 2720 4358 2678 
Q 4358 2637 4294 2601 
Q 4230 2566 4169 2432 
Q 4109 2298 3987 2112 
L 4467 2112 
Q 4467 2906 4454 3046 
Q 4755 3034 4883 3021 
z
M 1389 2458 
L 1690 2458 
L 1690 3245 
L 1446 3245 
Q 1382 3168 1382 2950 
L 1389 2458 
z
M 2304 2458 
L 2637 2458 
L 2637 3245 
L 2413 3245 
Q 2413 3206 2304 3130 
L 2304 2458 
z
M 3552 2906 
Q 3309 2771 3290 2765 
L 3290 1587 
Q 3514 2234 3552 2906 
z
M 1690 2246 
L 1382 2246 
Q 1376 1843 1350 1453 
L 1690 1453 
L 1690 2246 
z
M 2637 2246 
L 2304 2246 
L 2304 1453 
L 2637 1453 
L 2637 2246 
z
M 4467 1901 
L 3834 1901 
Q 3693 1715 3290 1331 
L 3290 1190 
L 4467 1190 
L 4467 1901 
z
M 2317 83 
Q 2522 90 2579 131 
Q 2637 173 2637 320 
L 2637 1242 
L 2304 1242 
L 2304 672 
Q 2304 454 2317 83 
z
" transform="scale(0.015625)"/>
       <path id="STSongti-SC-Black-7684" d="M 3494 2739 
Q 3443 2714 3257 2528 
Q 3072 2342 3053 2342 
Q 3034 2342 3034 2364 
Q 3034 2387 3072 2458 
Q 3629 3475 3750 5267 
Q 4122 5184 4438 5081 
Q 4755 4979 4803 4944 
Q 4851 4909 4851 4861 
Q 4851 4813 4726 4781 
Q 4602 4749 4544 4614 
L 4186 3827 
L 5126 3827 
Q 5306 4211 5414 4211 
Q 5485 4211 5721 4057 
Q 5958 3904 6112 3789 
Q 6266 3674 6266 3587 
Q 6266 3501 5984 3430 
Q 5978 2477 5936 1437 
Q 5894 397 5827 99 
Q 5760 -198 5581 -355 
Q 5402 -512 5120 -553 
Q 4838 -595 4713 -595 
Q 4589 -595 4550 -560 
Q 4512 -525 4496 -358 
Q 4480 -192 4326 -64 
Q 4173 64 3859 141 
Q 3738 173 3738 195 
Q 3738 218 3834 218 
L 4288 211 
Q 4678 211 4844 268 
Q 5011 326 5072 505 
Q 5133 685 5177 1597 
Q 5222 2509 5222 3616 
L 4077 3616 
Q 3808 3136 3507 2790 
Q 4090 2630 4384 2412 
Q 4678 2195 4678 1926 
Q 4678 1658 4547 1510 
Q 4416 1363 4211 1363 
Q 4006 1363 3942 1449 
Q 3878 1536 3878 1830 
Q 3878 2515 3494 2739 
z
M 1363 3808 
Q 1402 4198 1402 4528 
Q 1402 4858 1376 5216 
Q 1702 5184 2012 5133 
Q 2323 5082 2400 5050 
Q 2477 5018 2477 4976 
Q 2477 4934 2368 4886 
Q 2259 4838 2134 4646 
Q 2010 4454 1690 3808 
L 2240 3808 
Q 2323 3987 2387 4070 
Q 2451 4154 2518 4154 
Q 2586 4154 2915 3942 
Q 3245 3731 3245 3644 
Q 3245 3558 3008 3501 
L 3008 768 
Q 3008 467 3014 346 
L 3021 128 
Q 3021 45 2966 6 
Q 2912 -32 2761 -83 
Q 2611 -134 2413 -134 
Q 2304 -134 2304 13 
L 2304 320 
L 1286 320 
L 1286 -64 
Q 1286 -134 1241 -176 
Q 1197 -218 1037 -256 
Q 877 -294 736 -294 
Q 595 -294 579 -275 
Q 563 -256 563 -205 
L 576 96 
Q 589 410 589 666 
L 589 3379 
Q 589 3770 576 4045 
Q 928 3962 1325 3808 
L 1363 3808 
z
M 1286 2298 
L 2304 2298 
L 2304 3597 
L 1414 3597 
Q 1389 3456 1286 3411 
L 1286 2298 
z
M 2304 2086 
L 1286 2086 
L 1286 531 
L 2304 531 
L 2304 2086 
z
" transform="scale(0.015625)"/>
       <path id="STSongti-SC-Black-6982" d="M 3885 4826 
L 5325 4826 
Q 5510 5133 5561 5200 
Q 5613 5267 5651 5267 
Q 5715 5267 5996 5040 
Q 6278 4813 6278 4713 
Q 6278 4614 6131 4614 
L 5754 4614 
Q 5715 4544 5606 4499 
Q 5523 3411 5402 2701 
L 5485 2701 
Q 5600 2931 5661 3027 
Q 5722 3123 5766 3123 
Q 5811 3123 6067 2905 
Q 6323 2688 6323 2589 
Q 6323 2490 6189 2490 
L 5363 2490 
L 5312 2246 
Q 5581 2214 5645 2185 
Q 5709 2157 5709 2105 
Q 5709 2054 5594 1997 
L 5594 326 
Q 5594 218 5696 218 
Q 5907 218 6016 1043 
Q 6029 1126 6057 1126 
Q 6086 1126 6073 966 
Q 6061 806 6061 633 
Q 6061 461 6093 336 
Q 6125 211 6230 115 
Q 6336 19 6336 -58 
Q 6336 -173 6198 -326 
Q 6061 -480 5600 -480 
Q 5210 -480 5078 -349 
Q 4947 -218 4947 186 
L 4947 1210 
Q 4531 390 3740 -112 
Q 2950 -614 2816 -614 
Q 2797 -614 2797 -602 
Q 2797 -570 2880 -506 
Q 3827 198 4224 886 
Q 4621 1574 4762 2490 
L 4621 2490 
L 4531 2355 
Q 4499 2304 4457 2304 
Q 4416 2304 4243 2387 
Q 4070 2470 3891 2598 
L 3904 2298 
Q 3904 2227 3766 2153 
Q 3629 2080 3472 2080 
Q 3315 2080 3289 2121 
Q 3264 2163 3264 2234 
L 2880 2234 
L 2880 1043 
L 3514 1440 
Q 3450 1651 3213 1926 
Q 3155 1990 3155 2009 
Q 3155 2029 3174 2029 
Q 3238 2029 3532 1885 
Q 3827 1741 4012 1545 
Q 4198 1350 4198 1155 
Q 4198 960 4086 816 
Q 3974 672 3827 672 
Q 3680 672 3600 755 
Q 3520 838 3536 969 
Q 3552 1101 3552 1168 
Q 3552 1235 3546 1286 
Q 2746 224 2678 105 
Q 2611 -13 2563 -13 
Q 2515 -13 2464 64 
L 2259 416 
Q 2099 678 2099 716 
Q 2099 755 2144 774 
Q 2253 819 2253 960 
L 2253 2163 
Q 2170 1997 2038 1997 
Q 1907 1997 1865 2070 
Q 1824 2144 1824 2317 
Q 1824 2765 1702 2880 
L 1702 -442 
Q 1702 -499 1660 -531 
Q 1619 -563 1481 -604 
Q 1344 -646 1225 -646 
Q 1107 -646 1068 -611 
Q 1030 -576 1030 -531 
L 1037 301 
L 1037 2093 
Q 947 1894 809 1680 
Q 672 1466 477 1213 
Q 282 960 246 931 
Q 211 902 192 902 
Q 173 902 173 934 
Q 173 966 192 1018 
Q 512 1786 672 2307 
Q 832 2829 909 3603 
L 550 3603 
Q 422 3603 320 3533 
L 154 3834 
Q 307 3814 474 3814 
L 1037 3814 
L 1037 4538 
Q 1037 4960 1018 5267 
Q 1811 5248 1811 5120 
Q 1811 5069 1702 5030 
L 1702 3827 
Q 1779 3968 1836 4057 
Q 1894 4147 1920 4147 
Q 1971 4147 2108 4022 
Q 2246 3898 2253 3885 
L 2253 4499 
Q 2253 4819 2240 5069 
Q 2630 4954 2886 4819 
L 3200 4819 
Q 3386 5101 3440 5101 
Q 3494 5101 3625 5021 
Q 3757 4941 3885 4826 
z
M 4896 4614 
L 4032 4614 
Q 4019 4570 3891 4506 
L 3891 2682 
Q 4058 2746 4070 3053 
L 4096 3629 
Q 4102 3878 4096 4102 
Q 4301 4083 4493 4041 
Q 4685 4000 4729 3968 
Q 4774 3936 4774 3885 
Q 4774 3834 4659 3789 
L 4602 2701 
L 4794 2701 
Q 4896 3475 4896 4614 
z
M 3264 3635 
L 3264 4608 
L 2976 4608 
Q 2950 4570 2880 4550 
L 2880 3635 
L 3264 3635 
z
M 2253 3603 
L 1702 3603 
L 1702 3085 
Q 2112 2931 2253 2643 
L 2253 3603 
z
M 3264 2445 
L 3264 3424 
L 2880 3424 
L 2880 2445 
L 3264 2445 
z
" transform="scale(0.015625)"/>
       <path id="STSongti-SC-Black-7387" d="M 2976 4538 
Q 2938 4576 2915 4627 
Q 2893 4678 2893 4736 
L 2899 4832 
Q 2899 5114 2650 5254 
Q 2566 5299 2566 5325 
Q 2566 5363 2950 5363 
Q 3750 5363 3750 4922 
Q 3750 4672 3475 4538 
L 4890 4538 
Q 5139 4960 5180 5005 
Q 5222 5050 5261 5050 
Q 5357 5050 5699 4762 
Q 6042 4474 6042 4400 
Q 6042 4326 5914 4326 
L 3302 4326 
Q 3533 4230 3613 4172 
Q 3693 4115 3693 4054 
Q 3693 3994 3613 3994 
Q 3533 3994 3449 3958 
Q 3366 3923 3088 3724 
Q 2810 3526 2605 3341 
L 3430 3334 
Q 3661 3642 3744 3814 
Q 3872 3738 4102 3558 
Q 4333 3379 4358 3350 
Q 4384 3322 4384 3296 
Q 4384 3245 4307 3241 
Q 4230 3238 3932 3017 
Q 3635 2797 3443 2669 
Q 3923 2592 4246 2393 
Q 4570 2195 4570 1888 
Q 4570 1709 4419 1587 
Q 4269 1466 4160 1466 
Q 4051 1466 3984 1514 
Q 3917 1562 3897 1619 
Q 3878 1677 3878 1776 
Q 3878 1875 3846 1990 
L 2989 1734 
Q 3091 1728 3366 1686 
Q 3642 1645 3680 1616 
Q 3718 1587 3718 1532 
Q 3718 1478 3616 1421 
L 3616 941 
L 5062 941 
Q 5306 1350 5357 1421 
Q 5146 1408 5056 1523 
Q 4966 1638 4902 1926 
Q 4864 2080 4672 2320 
Q 4480 2560 4256 2714 
Q 4678 3494 4781 4160 
Q 4954 4109 5245 3977 
Q 5536 3846 5632 3788 
Q 5728 3731 5728 3680 
Q 5728 3597 5574 3584 
Q 5466 3571 5373 3516 
Q 5280 3462 4941 3190 
Q 4602 2918 4378 2714 
Q 5101 2586 5411 2381 
Q 5722 2176 5722 1894 
Q 5722 1613 5510 1478 
Q 5658 1414 5971 1142 
Q 6285 870 6285 800 
Q 6285 730 6157 730 
L 3616 730 
L 3616 211 
Q 3616 -109 3622 -230 
L 3629 -454 
Q 3629 -563 3395 -627 
Q 3162 -691 3024 -691 
Q 2886 -691 2844 -665 
Q 2803 -640 2803 -557 
L 2816 -307 
Q 2822 -58 2822 243 
L 2822 730 
L 634 730 
Q 506 730 403 659 
L 237 960 
Q 390 941 557 941 
L 2822 941 
L 2822 1190 
L 2816 1670 
Q 2438 1555 2352 1510 
Q 2266 1466 2253 1466 
Q 2227 1466 2217 1507 
Q 2208 1549 2125 1798 
Q 2042 2048 2042 2086 
Q 2042 2157 2102 2144 
Q 2163 2131 2195 2131 
Q 2336 2131 2646 2428 
Q 2957 2726 3206 3040 
Q 2586 2880 2362 2771 
Q 2336 2758 2307 2758 
Q 2278 2758 2265 2780 
Q 2253 2803 2169 3049 
Q 2086 3296 2086 3334 
Q 2086 3373 2125 3379 
Q 2349 3411 2502 3648 
Q 2656 3885 2803 4326 
L 883 4326 
Q 755 4326 653 4256 
L 486 4557 
Q 640 4538 806 4538 
L 2976 4538 
z
M 3379 2624 
Q 2842 2272 2630 2125 
L 3789 2138 
Q 3654 2426 3379 2624 
z
M 787 4070 
Q 883 4070 1180 3961 
Q 1478 3853 1670 3667 
Q 1862 3482 1862 3277 
Q 1862 3072 1740 2937 
Q 1619 2803 1402 2803 
Q 1274 2803 1181 2912 
Q 1088 3021 1088 3162 
L 1094 3296 
Q 1094 3501 1014 3696 
Q 934 3891 800 3994 
Q 749 4032 749 4051 
Q 749 4070 787 4070 
z
M 410 2208 
Q 787 2298 1292 2470 
Q 1798 2643 1977 2736 
Q 2157 2829 2185 2829 
Q 2214 2829 2214 2816 
Q 2214 2784 2012 2601 
Q 1811 2419 1446 2035 
Q 1082 1651 1005 1536 
Q 928 1421 905 1421 
Q 883 1421 864 1440 
Q 845 1459 678 1712 
Q 512 1965 410 2208 
z
" transform="scale(0.015625)"/>
      </defs>
      <use xlink:href="#STSongti-SC-Black-6d4b"/>
      <use xlink:href="#STSongti-SC-Black-91cf" transform="translate(99.999985 0)"/>
      <use xlink:href="#STSongti-SC-Black-5230" transform="translate(199.999969 0)"/>
      <use xlink:href="#STSongti-SC-Black-53ef" transform="translate(299.999954 0)"/>
      <use xlink:href="#STSongti-SC-Black-884c" transform="translate(399.999939 0)"/>
      <use xlink:href="#STSongti-SC-Black-89e3" transform="translate(499.999924 0)"/>
      <use xlink:href="#STSongti-SC-Black-7684" transform="translate(599.999908 0)"/>
      <use xlink:href="#STSongti-SC-Black-6982" transform="translate(699.999893 0)"/>
      <use xlink:href="#STSongti-SC-Black-7387" transform="translate(799.999878 0)"/>
     </g>
    </g>
   </g>
   <g id="patch_27">
    <path d="M 62.024375 288.908125 
L 62.024375 23.04 
" style="fill: none; stroke: #000000; stroke-width: 0.8; stroke-linejoin: miter; stroke-linecap: square"/>
   </g>
   <g id="patch_28">
    <path d="M 443.52 288.908125 
L 443.52 23.04 
" style="fill: none; stroke: #000000; stroke-width: 0.8; stroke-linejoin: miter; stroke-linecap: square"/>
   </g>
   <g id="patch_29">
    <path d="M 62.024375 288.908125 
L 443.52 288.908125 
" style="fill: none; stroke: #000000; stroke-width: 0.8; stroke-linejoin: miter; stroke-linecap: square"/>
   </g>
   <g id="patch_30">
    <path d="M 62.024375 23.04 
L 443.52 23.04 
" style="fill: none; stroke: #000000; stroke-width: 0.8; stroke-linejoin: miter; stroke-linecap: square"/>
   </g>
  </g>
 </g>
 <defs>
  <clipPath id="pe9f02c12dd">
   <rect x="62.024375" y="23.04" width="381.495625" height="265.868125"/>
  </clipPath>
 </defs>
</svg>
