<?xml version="1.0" encoding="utf-8" standalone="no"?>
<!DOCTYPE svg PUBLIC "-//W3C//DTD SVG 1.1//EN"
  "http://www.w3.org/Graphics/SVG/1.1/DTD/svg11.dtd">
<svg xmlns:xlink="http://www.w3.org/1999/xlink" width="460.8pt" height="345.6pt" viewBox="0 0 460.8 345.6" xmlns="http://www.w3.org/2000/svg" version="1.1">
 <metadata>
  <rdf:RDF xmlns:dc="http://purl.org/dc/elements/1.1/" xmlns:cc="http://creativecommons.org/ns#" xmlns:rdf="http://www.w3.org/1999/02/22-rdf-syntax-ns#">
   <cc:Work>
    <dc:type rdf:resource="http://purl.org/dc/dcmitype/StillImage"/>
    <dc:date>2025-11-06T14:36:20.202341</dc:date>
    <dc:format>image/svg+xml</dc:format>
    <dc:creator>
     <cc:Agent>
      <dc:title>Matplotlib v3.10.3, https://matplotlib.org/</dc:title>
     </cc:Agent>
    </dc:creator>
   </cc:Work>
  </rdf:RDF>
 </metadata>
 <defs>
  <style type="text/css">*{stroke-linejoin: round; stroke-linecap: butt}</style>
 </defs>
 <g id="figure_1">
  <g id="patch_1">
   <path d="M 0 345.6 
L 460.8 345.6 
L 460.8 0 
L 0 0 
z
" style="fill: #ffffff"/>
  </g>
  <g id="axes_1">
   <g id="patch_2">
    <path d="M 61.326875 288.908125 
L 443.52 288.908125 
L 443.52 18.103739 
L 61.326875 18.103739 
z
" style="fill: #ffffff"/>
   </g>
   <g id="patch_3">
    <path d="M 78.69929 288.908125 
L 90.680265 288.908125 
L 90.680265 62.973909 
L 78.69929 62.973909 
z
" clip-path="url(#pebc591142c)" style="fill: #1f77b4"/>
   </g>
   <g id="patch_4">
    <path d="M 138.604168 288.908125 
L 150.585144 288.908125 
L 150.585144 64.448674 
L 138.604168 64.448674 
z
" clip-path="url(#pebc591142c)" style="fill: #1f77b4"/>
   </g>
   <g id="patch_5">
    <path d="M 198.509047 288.908125 
L 210.490023 288.908125 
L 210.490023 74.945162 
L 198.509047 74.945162 
z
" clip-path="url(#pebc591142c)" style="fill: #1f77b4"/>
   </g>
   <g id="patch_6">
    <path d="M 258.413925 288.908125 
L 270.394901 288.908125 
L 270.394901 60.038916 
L 258.413925 60.038916 
z
" clip-path="url(#pebc591142c)" style="fill: #1f77b4"/>
   </g>
   <g id="patch_7">
    <path d="M 318.318804 288.908125 
L 330.29978 288.908125 
L 330.29978 30.999186 
L 318.318804 30.999186 
z
" clip-path="url(#pebc591142c)" style="fill: #1f77b4"/>
   </g>
   <g id="patch_8">
    <path d="M 378.223682 288.908125 
L 390.204658 288.908125 
L 390.204658 53.432049 
L 378.223682 53.432049 
z
" clip-path="url(#pebc591142c)" style="fill: #1f77b4"/>
   </g>
   <g id="patch_9">
    <path d="M 90.680265 288.908125 
L 102.661241 288.908125 
L 102.661241 58.88772 
L 90.680265 58.88772 
z
" clip-path="url(#pebc591142c)" style="fill: #ff7f0e"/>
   </g>
   <g id="patch_10">
    <path d="M 150.585144 288.908125 
L 162.56612 288.908125 
L 162.56612 62.193774 
L 150.585144 62.193774 
z
" clip-path="url(#pebc591142c)" style="fill: #ff7f0e"/>
   </g>
   <g id="patch_11">
    <path d="M 210.490023 288.908125 
L 222.470998 288.908125 
L 222.470998 71.888783 
L 210.490023 71.888783 
z
" clip-path="url(#pebc591142c)" style="fill: #ff7f0e"/>
   </g>
   <g id="patch_12">
    <path d="M 270.394901 288.908125 
L 282.375877 288.908125 
L 282.375877 50.062578 
L 270.394901 50.062578 
z
" clip-path="url(#pebc591142c)" style="fill: #ff7f0e"/>
   </g>
   <g id="patch_13">
    <path d="M 330.29978 288.908125 
L 342.280755 288.908125 
L 342.280755 56.016887 
L 330.29978 56.016887 
z
" clip-path="url(#pebc591142c)" style="fill: #ff7f0e"/>
   </g>
   <g id="patch_14">
    <path d="M 390.204658 288.908125 
L 402.185634 288.908125 
L 402.185634 49.662498 
L 390.204658 49.662498 
z
" clip-path="url(#pebc591142c)" style="fill: #ff7f0e"/>
   </g>
   <g id="patch_15">
    <path d="M 102.661241 288.908125 
L 114.642217 288.908125 
L 114.642217 58.894919 
L 102.661241 58.894919 
z
" clip-path="url(#pebc591142c)" style="fill: #2ca02c"/>
   </g>
   <g id="patch_16">
    <path d="M 162.56612 288.908125 
L 174.547095 288.908125 
L 174.547095 48.360692 
L 162.56612 48.360692 
z
" clip-path="url(#pebc591142c)" style="fill: #2ca02c"/>
   </g>
   <g id="patch_17">
    <path d="M 222.470998 288.908125 
L 234.451974 288.908125 
L 234.451974 80.760201 
L 222.470998 80.760201 
z
" clip-path="url(#pebc591142c)" style="fill: #2ca02c"/>
   </g>
   <g id="patch_18">
    <path d="M 282.375877 288.908125 
L 294.356852 288.908125 
L 294.356852 50.516912 
L 282.375877 50.516912 
z
" clip-path="url(#pebc591142c)" style="fill: #2ca02c"/>
   </g>
   <g id="patch_19">
    <path d="M 342.280755 288.908125 
L 354.261731 288.908125 
L 354.261731 58.52109 
L 342.280755 58.52109 
z
" clip-path="url(#pebc591142c)" style="fill: #2ca02c"/>
   </g>
   <g id="patch_20">
    <path d="M 402.185634 288.908125 
L 414.16661 288.908125 
L 414.16661 55.738253 
L 402.185634 55.738253 
z
" clip-path="url(#pebc591142c)" style="fill: #2ca02c"/>
   </g>
   <g id="patch_21">
    <path d="M 114.642217 288.908125 
L 126.623193 288.908125 
L 126.623193 90.807679 
L 114.642217 90.807679 
z
" clip-path="url(#pebc591142c)" style="fill: #d62728"/>
   </g>
   <g id="patch_22">
    <path d="M 174.547095 288.908125 
L 186.528071 288.908125 
L 186.528071 69.977678 
L 174.547095 69.977678 
z
" clip-path="url(#pebc591142c)" style="fill: #d62728"/>
   </g>
   <g id="patch_23">
    <path d="M 234.451974 288.908125 
L 246.43295 288.908125 
L 246.43295 60.595667 
L 234.451974 60.595667 
z
" clip-path="url(#pebc591142c)" style="fill: #d62728"/>
   </g>
   <g id="patch_24">
    <path d="M 294.356852 288.908125 
L 306.337828 288.908125 
L 306.337828 65.036345 
L 294.356852 65.036345 
z
" clip-path="url(#pebc591142c)" style="fill: #d62728"/>
   </g>
   <g id="patch_25">
    <path d="M 354.261731 288.908125 
L 366.242707 288.908125 
L 366.242707 46.596566 
L 354.261731 46.596566 
z
" clip-path="url(#pebc591142c)" style="fill: #d62728"/>
   </g>
   <g id="patch_26">
    <path d="M 414.16661 288.908125 
L 426.147585 288.908125 
L 426.147585 48.030602 
L 414.16661 48.030602 
z
" clip-path="url(#pebc591142c)" style="fill: #d62728"/>
   </g>
   <g id="matplotlib.axis_1">
    <g id="xtick_1">
     <g id="line2d_1">
      <defs>
       <path id="m5cca9a8333" d="M 0 0 
L 0 3.5 
" style="stroke: #000000; stroke-width: 0.8"/>
      </defs>
      <g>
       <use xlink:href="#m5cca9a8333" x="102.661241" y="288.908125" style="stroke: #000000; stroke-width: 0.8"/>
      </g>
     </g>
     <g id="text_1">
      <!-- 1 -->
      <g transform="translate(98.908741 307.428125) scale(0.16 -0.16)">
       <defs>
        <path id="STSongti-SC-Black-31" d="M 2464 365 
Q 2298 371 2045 377 
Q 1792 384 1523 384 
Q 1254 384 1001 377 
Q 749 371 582 365 
L 582 550 
L 979 608 
Q 1203 659 1203 858 
L 1203 3840 
L 442 3347 
L 333 3546 
Q 442 3616 608 3718 
Q 774 3821 960 3942 
Q 1146 4064 1331 4192 
Q 1517 4320 1670 4448 
L 1882 4448 
L 1882 858 
Q 1882 634 2106 602 
L 2464 550 
L 2464 365 
z
" transform="scale(0.015625)"/>
       </defs>
       <use xlink:href="#STSongti-SC-Black-31"/>
      </g>
     </g>
    </g>
    <g id="xtick_2">
     <g id="line2d_2">
      <g>
       <use xlink:href="#m5cca9a8333" x="162.56612" y="288.908125" style="stroke: #000000; stroke-width: 0.8"/>
      </g>
     </g>
     <g id="text_2">
      <!-- 2 -->
      <g transform="translate(158.81362 307.428125) scale(0.16 -0.16)">
       <defs>
        <path id="STSongti-SC-Black-32" d="M 2726 365 
Q 2496 371 2227 377 
Q 1958 384 1542 384 
Q 1120 384 777 381 
Q 435 378 211 365 
Q 230 518 262 659 
Q 294 800 377 957 
Q 461 1114 605 1299 
Q 749 1485 992 1734 
L 1229 1978 
Q 1478 2227 1625 2412 
Q 1773 2598 1849 2748 
Q 1926 2899 1945 3033 
Q 1965 3168 1965 3322 
Q 1965 3622 1779 3801 
Q 1594 3981 1280 3981 
Q 954 3981 746 3769 
Q 538 3558 461 3162 
L 262 3238 
Q 352 3827 694 4137 
Q 1037 4448 1549 4448 
Q 1779 4448 1984 4384 
Q 2189 4320 2342 4195 
Q 2496 4070 2589 3888 
Q 2682 3706 2682 3469 
Q 2682 3219 2592 3008 
Q 2502 2797 2348 2608 
Q 2195 2419 1993 2246 
Q 1792 2074 1574 1907 
L 1382 1754 
Q 1216 1619 1030 1427 
Q 845 1235 685 979 
L 2074 979 
Q 2234 979 2317 1011 
Q 2400 1043 2448 1116 
Q 2496 1190 2531 1302 
Q 2566 1414 2624 1568 
L 2822 1568 
L 2726 365 
z
" transform="scale(0.015625)"/>
       </defs>
       <use xlink:href="#STSongti-SC-Black-32"/>
      </g>
     </g>
    </g>
    <g id="xtick_3">
     <g id="line2d_3">
      <g>
       <use xlink:href="#m5cca9a8333" x="222.470998" y="288.908125" style="stroke: #000000; stroke-width: 0.8"/>
      </g>
     </g>
     <g id="text_3">
      <!-- 3 -->
      <g transform="translate(218.718498 307.428125) scale(0.16 -0.16)">
       <defs>
        <path id="STSongti-SC-Black-33" d="M 576 3430 
L 474 3526 
Q 550 3731 646 3900 
Q 742 4070 876 4192 
Q 1011 4314 1193 4381 
Q 1376 4448 1619 4448 
Q 1779 4448 1939 4409 
Q 2099 4371 2224 4288 
Q 2349 4205 2425 4083 
Q 2502 3962 2502 3789 
Q 2502 3539 2281 3289 
Q 2061 3040 1683 2822 
Q 1939 2842 2153 2771 
Q 2368 2701 2518 2560 
Q 2669 2419 2752 2214 
Q 2835 2010 2835 1760 
Q 2835 1446 2707 1174 
Q 2579 902 2355 704 
Q 2131 506 1833 394 
Q 1536 282 1203 282 
Q 762 282 518 403 
Q 275 525 275 717 
Q 275 787 323 854 
Q 371 922 457 950 
Q 544 979 653 950 
Q 762 922 890 800 
Q 986 704 1053 640 
Q 1120 576 1174 541 
Q 1229 506 1277 490 
Q 1325 474 1389 474 
Q 1581 474 1725 570 
Q 1869 666 1965 826 
Q 2061 986 2105 1184 
Q 2150 1382 2150 1587 
Q 2150 1997 1955 2198 
Q 1760 2400 1498 2400 
Q 1331 2400 1206 2345 
Q 1082 2291 954 2182 
L 845 2330 
Q 909 2387 979 2444 
Q 1050 2502 1126 2560 
Q 1478 2822 1676 3030 
Q 1875 3238 1875 3437 
Q 1875 3686 1731 3824 
Q 1587 3962 1306 3962 
Q 1101 3962 902 3843 
Q 704 3725 576 3430 
z
" transform="scale(0.015625)"/>
       </defs>
       <use xlink:href="#STSongti-SC-Black-33"/>
      </g>
     </g>
    </g>
    <g id="xtick_4">
     <g id="line2d_4">
      <g>
       <use xlink:href="#m5cca9a8333" x="282.375877" y="288.908125" style="stroke: #000000; stroke-width: 0.8"/>
      </g>
     </g>
     <g id="text_4">
      <!-- 4 -->
      <g transform="translate(278.623377 307.428125) scale(0.16 -0.16)">
       <defs>
        <path id="STSongti-SC-Black-34" d="M 2086 4448 
L 2387 4448 
L 2387 1843 
L 2918 1843 
L 2918 1434 
L 2387 1434 
L 2387 282 
L 1670 282 
L 1670 1434 
L 122 1434 
L 122 1760 
L 966 2912 
Q 1254 3296 1529 3680 
Q 1805 4064 2086 4448 
z
M 1670 1843 
L 1670 3469 
Q 1453 3168 1289 2944 
Q 1126 2720 992 2537 
Q 858 2355 739 2188 
Q 621 2022 493 1843 
L 1670 1843 
z
" transform="scale(0.015625)"/>
       </defs>
       <use xlink:href="#STSongti-SC-Black-34"/>
      </g>
     </g>
    </g>
    <g id="xtick_5">
     <g id="line2d_5">
      <g>
       <use xlink:href="#m5cca9a8333" x="342.280755" y="288.908125" style="stroke: #000000; stroke-width: 0.8"/>
      </g>
     </g>
     <g id="text_5">
      <!-- 5 -->
      <g transform="translate(338.528255 307.428125) scale(0.16 -0.16)">
       <defs>
        <path id="STSongti-SC-Black-35" d="M 2490 3763 
L 1536 3763 
Q 1286 3763 1094 3760 
Q 902 3757 877 3744 
L 819 2880 
Q 960 2950 1145 2982 
Q 1331 3014 1478 3014 
Q 1805 3014 2051 2908 
Q 2298 2803 2464 2627 
Q 2630 2451 2713 2220 
Q 2797 1990 2797 1741 
Q 2797 1414 2662 1145 
Q 2528 877 2310 685 
Q 2093 493 1817 387 
Q 1542 282 1254 282 
Q 1107 282 934 310 
Q 762 339 611 393 
Q 461 448 361 528 
Q 262 608 262 717 
Q 262 794 313 854 
Q 365 915 435 950 
Q 506 986 582 986 
Q 659 986 710 941 
Q 864 813 963 723 
Q 1062 634 1139 576 
Q 1216 518 1286 492 
Q 1357 467 1453 467 
Q 1632 467 1766 550 
Q 1901 634 1993 778 
Q 2086 922 2134 1114 
Q 2182 1306 2182 1523 
Q 2182 1728 2118 1897 
Q 2054 2067 1939 2192 
Q 1824 2317 1667 2387 
Q 1510 2458 1318 2458 
Q 1101 2458 957 2410 
Q 813 2362 723 2272 
L 614 2272 
L 736 4384 
L 1542 4384 
Q 1792 4384 1952 4384 
Q 2112 4384 2205 4400 
Q 2298 4416 2336 4451 
Q 2374 4486 2387 4557 
L 2547 4557 
L 2490 3763 
z
" transform="scale(0.015625)"/>
       </defs>
       <use xlink:href="#STSongti-SC-Black-35"/>
      </g>
     </g>
    </g>
    <g id="xtick_6">
     <g id="line2d_6">
      <g>
       <use xlink:href="#m5cca9a8333" x="402.185634" y="288.908125" style="stroke: #000000; stroke-width: 0.8"/>
      </g>
     </g>
     <g id="text_6">
      <!-- 6 -->
      <g transform="translate(398.433134 307.428125) scale(0.16 -0.16)">
       <defs>
        <path id="STSongti-SC-Black-36" d="M 2458 4467 
L 2509 4346 
Q 2138 4141 1846 3926 
Q 1555 3712 1356 3430 
Q 1158 3149 1056 2761 
Q 954 2374 954 1824 
Q 954 1645 973 1414 
Q 992 1184 1053 976 
Q 1114 768 1235 627 
Q 1357 486 1562 486 
Q 1824 486 1987 739 
Q 2150 992 2150 1562 
Q 2150 2042 1996 2282 
Q 1843 2522 1555 2522 
Q 1434 2522 1318 2470 
L 1267 2637 
Q 1370 2682 1482 2704 
Q 1594 2726 1747 2726 
Q 2278 2726 2560 2425 
Q 2842 2125 2842 1626 
Q 2842 1318 2736 1072 
Q 2630 826 2451 650 
Q 2272 474 2035 378 
Q 1798 282 1530 282 
Q 1190 282 944 403 
Q 698 525 534 739 
Q 371 954 294 1242 
Q 218 1530 218 1862 
Q 218 2426 394 2864 
Q 570 3302 874 3622 
Q 1178 3942 1587 4150 
Q 1997 4358 2458 4467 
z
" transform="scale(0.015625)"/>
       </defs>
       <use xlink:href="#STSongti-SC-Black-36"/>
      </g>
     </g>
    </g>
    <g id="text_7">
     <!-- 线路层数 -->
     <g transform="translate(220.423438 326.530625) scale(0.16 -0.16)">
      <defs>
       <path id="STSongti-SC-Black-7ebf" d="M 4109 5005 
Q 4205 5011 4301 5011 
Q 4749 5011 5017 4873 
Q 5286 4736 5286 4512 
Q 5286 4378 5190 4250 
Q 5478 4090 5635 3971 
Q 5792 3853 5792 3763 
Q 5792 3674 5606 3635 
L 4000 3322 
Q 4026 2854 4051 2630 
L 4947 2829 
Q 5037 3072 5107 3238 
Q 5178 3405 5206 3440 
Q 5235 3475 5267 3475 
Q 5344 3475 5609 3312 
Q 5875 3149 5996 3062 
Q 6118 2976 6118 2889 
Q 6118 2803 5965 2771 
L 4083 2381 
Q 4179 1766 4339 1370 
Q 4768 1882 4947 2445 
Q 5389 2272 5625 2163 
Q 5862 2054 5891 2028 
Q 5920 2003 5920 1978 
Q 5920 1920 5782 1881 
Q 5645 1843 5491 1651 
Q 5075 1126 4685 794 
Q 4826 634 5027 512 
Q 5229 390 5315 390 
Q 5402 390 5459 428 
Q 5517 467 5629 694 
Q 5741 922 5843 1165 
Q 5946 1408 5974 1408 
Q 6003 1408 6003 1363 
Q 6003 1318 5990 1267 
Q 5875 826 5875 490 
Q 5875 154 6118 -166 
Q 6176 -250 6176 -358 
Q 6176 -467 6061 -553 
Q 5946 -640 5734 -640 
Q 5363 -640 4896 -384 
Q 4429 -128 4070 352 
Q 3526 19 2652 -237 
Q 1779 -493 1664 -493 
Q 1600 -493 1600 -454 
Q 1600 -416 1734 -365 
Q 2989 141 3789 813 
Q 3539 1344 3392 2234 
L 2694 2093 
Q 2579 2086 2470 1990 
L 2272 2298 
Q 2349 2291 2425 2291 
Q 2502 2291 2592 2310 
L 3354 2477 
Q 3296 2867 3264 3181 
L 2880 3104 
Q 2752 3085 2656 3002 
L 2541 3181 
Q 1914 2419 1267 1709 
L 2758 1760 
Q 2906 1760 2906 1718 
Q 2906 1677 2739 1632 
Q 1971 1414 1571 1270 
Q 1171 1126 774 928 
Q 717 896 672 896 
Q 627 896 611 918 
Q 595 941 483 1293 
Q 371 1645 371 1721 
Q 371 1798 499 1805 
Q 704 1811 889 1907 
Q 1075 2003 1196 2195 
Q 1318 2387 1574 2880 
Q 1018 2701 646 2464 
Q 589 2426 550 2426 
Q 512 2426 489 2461 
Q 467 2496 348 2816 
Q 230 3136 230 3200 
Q 230 3302 339 3315 
Q 448 3328 541 3379 
Q 634 3430 685 3500 
Q 736 3571 861 3910 
Q 986 4250 1059 4534 
Q 1133 4819 1197 5184 
Q 1574 5043 1878 4905 
Q 2182 4768 2214 4739 
Q 2246 4710 2246 4678 
Q 2246 4614 2112 4589 
Q 2054 4576 1990 4518 
Q 1926 4461 1558 4000 
Q 1190 3539 877 3162 
L 1702 3155 
Q 1933 3661 2086 4102 
Q 2304 4006 2624 3840 
Q 2944 3674 2976 3638 
Q 3008 3603 3008 3571 
Q 3008 3507 2915 3481 
Q 2822 3456 2656 3302 
L 3245 3411 
L 3117 5274 
Q 3398 5261 3715 5216 
Q 4032 5171 4089 5145 
Q 4147 5120 4147 5085 
Q 4147 5050 4109 5005 
z
M 4806 4032 
Q 4589 4090 4531 4269 
Q 4429 4589 4326 4704 
Q 4224 4819 4019 4915 
Q 4006 4909 3981 4883 
Q 3974 4614 3974 4291 
Q 3974 3968 3987 3558 
L 4685 3693 
Q 4749 3885 4806 4032 
z
M 256 448 
Q 1018 518 1734 659 
L 2842 870 
Q 2899 870 2899 835 
Q 2899 800 2829 768 
Q 1261 19 672 -365 
Q 614 -397 588 -397 
Q 563 -397 547 -377 
Q 531 -358 432 -102 
Q 333 154 256 448 
z
" transform="scale(0.015625)"/>
       <path id="STSongti-SC-Black-8def" d="M 2016 2925 
Q 1990 2938 1990 3021 
L 1990 3194 
L 1274 3194 
L 1274 3078 
Q 1274 3027 1232 2995 
Q 1190 2963 1107 2918 
Q 1024 2874 845 2858 
Q 666 2842 618 2842 
Q 570 2842 570 2893 
L 582 3174 
Q 595 3366 595 3526 
L 595 4506 
Q 595 4787 576 5062 
Q 973 4954 1293 4794 
L 1920 4794 
Q 2054 5075 2083 5107 
Q 2112 5139 2150 5139 
Q 2189 5139 2403 5004 
Q 2618 4870 2749 4771 
Q 2880 4672 2880 4627 
Q 2880 4563 2669 4486 
L 2669 3789 
Q 2669 3450 2675 3354 
L 2682 3174 
Q 2682 3136 2624 3091 
Q 2566 3046 2422 2992 
Q 2278 2938 2086 2912 
Q 2266 2918 2266 2844 
Q 2266 2771 2106 2682 
L 2106 1965 
L 2157 1965 
Q 2387 2330 2416 2362 
Q 2445 2394 2480 2394 
Q 2515 2394 2694 2262 
Q 2874 2131 3046 1952 
Q 3514 2336 3898 2822 
Q 3648 3136 3501 3546 
Q 3309 3322 3069 3101 
Q 2829 2880 2723 2803 
Q 2618 2726 2592 2726 
Q 2566 2726 2566 2755 
Q 2566 2784 2598 2829 
Q 3277 3718 3450 5280 
Q 3968 5184 4192 5120 
Q 4416 5056 4467 5021 
Q 4518 4986 4518 4954 
Q 4518 4902 4425 4867 
Q 4333 4832 4272 4758 
Q 4211 4685 4090 4442 
L 4666 4442 
Q 4838 4717 4876 4768 
Q 4915 4819 4966 4819 
Q 5018 4819 5274 4649 
Q 5530 4480 5699 4333 
Q 5869 4186 5869 4109 
Q 5869 4000 5651 3987 
Q 5587 3981 5532 3933 
Q 5478 3885 5241 3565 
Q 5005 3245 4736 2944 
Q 5056 2752 5398 2630 
Q 5741 2509 6291 2400 
Q 6387 2381 6387 2294 
Q 6387 2208 6294 2169 
Q 6202 2131 6080 1987 
Q 5958 1843 5869 1651 
Q 5824 1549 5766 1549 
Q 5677 1549 5120 1862 
Q 4563 2176 4250 2458 
Q 3808 2061 3264 1760 
Q 3533 1677 3706 1587 
L 4717 1587 
Q 4858 1824 4928 1824 
Q 4998 1824 5030 1805 
L 5350 1632 
Q 5638 1478 5683 1430 
Q 5728 1382 5728 1338 
Q 5728 1235 5536 1171 
L 5536 211 
Q 5536 -128 5542 -224 
L 5549 -403 
Q 5549 -486 5376 -560 
Q 5203 -634 4851 -634 
Q 4794 -634 4778 -614 
Q 4762 -595 4762 -525 
L 4762 -192 
L 3731 -192 
L 3731 -416 
Q 3731 -461 3696 -489 
Q 3661 -518 3571 -566 
Q 3482 -614 3293 -633 
Q 3104 -653 3056 -653 
Q 3008 -653 3008 -602 
L 3021 -320 
Q 3034 -128 3034 32 
L 3034 774 
Q 2099 384 1398 51 
Q 698 -282 582 -358 
Q 467 -435 438 -435 
Q 410 -435 394 -412 
Q 378 -390 294 -108 
Q 211 173 147 429 
Q 269 442 493 474 
L 493 1933 
Q 493 2272 480 2515 
Q 1018 2490 1158 2448 
Q 1299 2406 1299 2339 
Q 1299 2272 1158 2214 
L 1158 563 
L 1440 602 
L 1440 2413 
Q 1440 2726 1427 2963 
Q 1696 2957 2016 2925 
z
M 1990 3405 
L 1990 4582 
L 1382 4582 
Q 1350 4531 1274 4506 
L 1274 3405 
L 1990 3405 
z
M 3974 4230 
Q 3866 4032 3686 3789 
Q 3866 3546 4218 3283 
Q 4493 3718 4685 4230 
L 3974 4230 
z
M 3027 1638 
Q 2387 1357 2304 1357 
Q 2278 1357 2278 1376 
Q 2278 1414 2441 1516 
Q 2605 1619 2790 1754 
L 2106 1754 
L 2106 704 
L 3034 864 
L 3034 1280 
L 3027 1638 
z
M 3846 1376 
Q 3814 1306 3731 1280 
L 3731 19 
L 4762 19 
L 4762 1376 
L 3846 1376 
z
" transform="scale(0.015625)"/>
       <path id="STSongti-SC-Black-5c42" d="M 1907 4890 
L 4704 4890 
Q 4819 5114 4883 5206 
Q 4947 5299 4992 5299 
Q 5030 5299 5283 5136 
Q 5536 4973 5667 4861 
Q 5798 4749 5798 4704 
Q 5798 4634 5581 4557 
L 5581 3968 
L 5587 3635 
Q 5587 3565 5516 3523 
Q 5446 3482 5273 3450 
Q 5101 3418 4909 3418 
Q 4864 3418 4832 3466 
Q 4800 3514 4800 3552 
L 4800 3648 
L 1786 3648 
Q 1766 2726 1728 2166 
Q 1690 1606 1584 1212 
Q 1478 819 1283 496 
Q 1088 173 825 -73 
Q 563 -320 425 -406 
Q 288 -493 272 -493 
Q 256 -493 256 -480 
Q 256 -454 320 -378 
Q 621 -38 784 374 
Q 947 787 995 1270 
Q 1043 1754 1043 2842 
Q 1043 3930 1018 5210 
Q 1587 5037 1907 4890 
z
M 4800 3859 
L 4800 4678 
L 1830 4678 
Q 1805 4621 1805 4464 
Q 1805 4307 1792 3859 
L 4800 3859 
z
M 4307 2918 
Q 4384 3053 4486 3206 
Q 4589 3360 4617 3398 
Q 4646 3437 4678 3437 
Q 4736 3437 4931 3261 
Q 5126 3085 5273 2957 
Q 5421 2829 5421 2768 
Q 5421 2707 5293 2707 
L 2490 2707 
Q 2362 2707 2259 2637 
L 2093 2938 
Q 2246 2918 2413 2918 
L 4307 2918 
z
M 3066 1715 
L 2195 1715 
Q 2067 1715 1965 1645 
L 1798 1946 
Q 1952 1926 2118 1926 
L 4800 1926 
Q 5069 2464 5165 2464 
Q 5229 2464 5632 2166 
Q 6035 1869 6035 1773 
Q 6035 1715 5907 1715 
L 3744 1715 
Q 4166 1594 4166 1530 
Q 4166 1466 4067 1434 
Q 3968 1402 3760 1254 
Q 3552 1107 3366 940 
Q 3181 774 3021 675 
Q 2861 576 2534 422 
L 4864 518 
Q 4774 883 4403 1229 
Q 4320 1306 4320 1325 
Q 4320 1344 4339 1344 
Q 4416 1344 4784 1181 
Q 5152 1018 5347 861 
Q 5542 704 5676 509 
Q 5811 314 5811 134 
Q 5811 -102 5660 -284 
Q 5510 -467 5312 -467 
Q 5114 -467 4995 -326 
Q 4877 -186 4896 -13 
Q 4909 90 4905 182 
Q 4902 275 4896 358 
L 3277 -51 
Q 2208 -320 2137 -368 
Q 2067 -416 2025 -416 
Q 1984 -416 1949 -355 
Q 1914 -294 1789 38 
Q 1664 371 1664 429 
Q 1664 506 1715 509 
Q 1766 512 1910 512 
Q 2054 512 2185 550 
Q 2317 589 2384 659 
Q 2451 730 2620 950 
Q 2790 1171 2896 1353 
Q 3002 1536 3066 1715 
z
" transform="scale(0.015625)"/>
       <path id="STSongti-SC-Black-6570" d="M 2330 4051 
Q 2566 4378 2810 4973 
Q 3059 4877 3302 4729 
Q 3546 4582 3546 4515 
Q 3546 4448 3414 4435 
Q 3283 4422 3120 4336 
Q 2957 4250 2330 3827 
L 2330 3738 
L 2784 3738 
Q 3014 4141 3091 4141 
Q 3149 4141 3385 3920 
Q 3622 3699 3622 3612 
Q 3622 3526 3456 3526 
L 2330 3526 
L 2330 3373 
Q 2790 3290 3033 3120 
Q 3277 2950 3277 2771 
Q 3277 2592 3165 2467 
Q 3053 2342 2928 2342 
Q 2803 2342 2736 2406 
Q 2669 2470 2630 2637 
Q 2560 2989 2330 3226 
L 2330 3053 
Q 2330 2842 2342 2605 
L 2349 2387 
Q 2349 2336 2320 2313 
Q 2291 2291 2118 2208 
Q 2285 2131 2304 2102 
Q 2323 2074 2323 2054 
Q 2323 1990 2227 1971 
Q 2150 1952 2010 1728 
L 2381 1728 
Q 2496 1939 2544 2003 
Q 2592 2067 2637 2067 
Q 2682 2067 3066 1843 
Q 3834 3072 3898 5261 
Q 4294 5210 4569 5142 
Q 4845 5075 4899 5043 
Q 4954 5011 4954 4966 
Q 4954 4909 4880 4873 
Q 4806 4838 4761 4742 
Q 4717 4646 4617 4352 
Q 4518 4058 4346 3648 
L 5184 3648 
Q 5466 4192 5552 4192 
Q 5638 4192 5856 4009 
Q 6074 3827 6182 3721 
Q 6291 3616 6291 3539 
Q 6291 3437 6170 3437 
L 5466 3437 
Q 5811 3366 5811 3264 
Q 5811 3206 5737 3171 
Q 5664 3136 5622 3024 
Q 5581 2912 5501 2541 
Q 5421 2170 5232 1674 
Q 5043 1178 4851 890 
Q 5325 454 6246 141 
Q 6323 115 6323 83 
Q 6323 51 6214 32 
Q 6106 13 5872 -179 
Q 5638 -371 5517 -550 
Q 5478 -608 5433 -608 
Q 5389 -608 5347 -582 
Q 5306 -557 5088 -361 
Q 4870 -166 4700 19 
Q 4531 205 4403 384 
Q 3866 -141 3232 -441 
Q 2598 -742 2490 -742 
Q 2458 -742 2458 -716 
Q 2458 -691 2534 -646 
Q 3693 0 4166 762 
Q 3808 1446 3776 2566 
Q 3520 2163 3168 1773 
Q 3398 1651 3398 1568 
Q 3398 1485 3299 1449 
Q 3200 1414 3165 1379 
Q 3130 1344 3024 1123 
Q 2918 902 2746 659 
Q 2854 621 3014 525 
Q 3174 429 3225 304 
Q 3277 179 3277 60 
Q 3277 -58 3158 -170 
Q 3040 -282 2902 -282 
Q 2765 -282 2592 -109 
Q 2419 64 2285 173 
Q 1830 -192 1126 -419 
Q 422 -646 307 -646 
Q 262 -646 262 -624 
Q 262 -602 333 -576 
Q 1306 -198 1862 448 
Q 1498 634 787 800 
Q 1011 1184 1178 1517 
L 755 1517 
Q 627 1517 525 1446 
L 352 1747 
Q 506 1728 672 1728 
L 1280 1728 
Q 1376 1920 1574 2394 
L 1645 2374 
L 1645 3021 
Q 1325 2554 848 2214 
Q 371 1875 288 1875 
Q 275 1875 275 1888 
Q 275 1914 358 1997 
Q 960 2560 1299 3526 
L 755 3526 
Q 589 3526 480 3494 
L 371 3770 
Q 506 3738 691 3738 
L 1645 3738 
L 1645 4698 
Q 1645 5018 1632 5267 
Q 1978 5235 2179 5196 
Q 2381 5158 2419 5129 
Q 2458 5101 2458 5053 
Q 2458 5005 2330 4954 
L 2330 4051 
z
M 4851 3437 
L 4250 3437 
Q 4141 3181 3942 2842 
Q 4058 1952 4454 1357 
Q 4787 2176 4851 3437 
z
M 1888 1517 
L 1549 928 
Q 1850 902 2144 838 
Q 2330 1165 2413 1517 
L 1888 1517 
z
M 563 4806 
Q 947 4806 1238 4646 
Q 1530 4486 1530 4294 
Q 1530 4102 1437 3984 
Q 1344 3866 1203 3866 
Q 1062 3866 998 3926 
Q 934 3987 922 4134 
Q 883 4518 557 4742 
Q 512 4774 512 4790 
Q 512 4806 563 4806 
z
" transform="scale(0.015625)"/>
      </defs>
      <use xlink:href="#STSongti-SC-Black-7ebf"/>
      <use xlink:href="#STSongti-SC-Black-8def" transform="translate(99.999985 0)"/>
      <use xlink:href="#STSongti-SC-Black-5c42" transform="translate(199.999969 0)"/>
      <use xlink:href="#STSongti-SC-Black-6570" transform="translate(299.999954 0)"/>
     </g>
    </g>
   </g>
   <g id="matplotlib.axis_2">
    <g id="ytick_1">
     <g id="line2d_7">
      <defs>
       <path id="m7b68cf426c" d="M 0 0 
L -3.5 0 
" style="stroke: #000000; stroke-width: 0.8"/>
      </defs>
      <g>
       <use xlink:href="#m7b68cf426c" x="61.326875" y="288.908125" style="stroke: #000000; stroke-width: 0.8"/>
      </g>
     </g>
     <g id="text_8">
      <!-- 0.0 -->
      <g transform="translate(35.811875 294.668125) scale(0.16 -0.16)">
       <defs>
        <path id="STSongti-SC-Black-30" d="M 1517 4448 
Q 1792 4448 2045 4285 
Q 2298 4122 2486 3840 
Q 2675 3558 2787 3177 
Q 2899 2797 2899 2362 
Q 2899 1933 2790 1555 
Q 2682 1178 2493 893 
Q 2304 608 2054 445 
Q 1805 282 1523 282 
Q 1248 282 995 442 
Q 742 602 550 880 
Q 358 1158 246 1539 
Q 134 1920 134 2355 
Q 134 2797 246 3181 
Q 358 3565 547 3846 
Q 736 4128 985 4288 
Q 1235 4448 1517 4448 
z
M 1517 518 
Q 1869 518 1997 966 
Q 2125 1414 2125 2362 
Q 2125 3309 1993 3760 
Q 1862 4211 1517 4211 
Q 1171 4211 1040 3763 
Q 909 3315 909 2362 
Q 909 518 1517 518 
z
" transform="scale(0.015625)"/>
        <path id="STSongti-SC-Black-2e" d="M 704 294 
Q 538 294 422 409 
Q 307 525 307 691 
Q 307 858 422 973 
Q 538 1088 704 1088 
Q 870 1088 985 973 
Q 1101 858 1101 691 
Q 1101 525 985 409 
Q 870 294 704 294 
z
" transform="scale(0.015625)"/>
       </defs>
       <use xlink:href="#STSongti-SC-Black-30"/>
       <use xlink:href="#STSongti-SC-Black-2e" transform="translate(46.899994 0)"/>
       <use xlink:href="#STSongti-SC-Black-30" transform="translate(68.799988 0)"/>
      </g>
     </g>
    </g>
    <g id="ytick_2">
     <g id="line2d_8">
      <g>
       <use xlink:href="#m7b68cf426c" x="61.326875" y="235.751908" style="stroke: #000000; stroke-width: 0.8"/>
      </g>
     </g>
     <g id="text_9">
      <!-- 0.2 -->
      <g transform="translate(35.811875 241.511908) scale(0.16 -0.16)">
       <use xlink:href="#STSongti-SC-Black-30"/>
       <use xlink:href="#STSongti-SC-Black-2e" transform="translate(46.899994 0)"/>
       <use xlink:href="#STSongti-SC-Black-32" transform="translate(68.799988 0)"/>
      </g>
     </g>
    </g>
    <g id="ytick_3">
     <g id="line2d_9">
      <g>
       <use xlink:href="#m7b68cf426c" x="61.326875" y="182.595692" style="stroke: #000000; stroke-width: 0.8"/>
      </g>
     </g>
     <g id="text_10">
      <!-- 0.4 -->
      <g transform="translate(35.811875 188.355692) scale(0.16 -0.16)">
       <use xlink:href="#STSongti-SC-Black-30"/>
       <use xlink:href="#STSongti-SC-Black-2e" transform="translate(46.899994 0)"/>
       <use xlink:href="#STSongti-SC-Black-34" transform="translate(68.799988 0)"/>
      </g>
     </g>
    </g>
    <g id="ytick_4">
     <g id="line2d_10">
      <g>
       <use xlink:href="#m7b68cf426c" x="61.326875" y="129.439475" style="stroke: #000000; stroke-width: 0.8"/>
      </g>
     </g>
     <g id="text_11">
      <!-- 0.6 -->
      <g transform="translate(35.811875 135.199475) scale(0.16 -0.16)">
       <use xlink:href="#STSongti-SC-Black-30"/>
       <use xlink:href="#STSongti-SC-Black-2e" transform="translate(46.899994 0)"/>
       <use xlink:href="#STSongti-SC-Black-36" transform="translate(68.799988 0)"/>
      </g>
     </g>
    </g>
    <g id="ytick_5">
     <g id="line2d_11">
      <g>
       <use xlink:href="#m7b68cf426c" x="61.326875" y="76.283258" style="stroke: #000000; stroke-width: 0.8"/>
      </g>
     </g>
     <g id="text_12">
      <!-- 0.8 -->
      <g transform="translate(35.811875 82.043258) scale(0.16 -0.16)">
       <defs>
        <path id="STSongti-SC-Black-38" d="M 1069 2368 
Q 282 2758 282 3424 
Q 282 3622 368 3804 
Q 454 3987 617 4131 
Q 781 4275 1005 4361 
Q 1229 4448 1510 4448 
Q 1760 4448 1968 4377 
Q 2176 4307 2326 4185 
Q 2477 4064 2560 3901 
Q 2643 3738 2643 3552 
Q 2643 3366 2588 3232 
Q 2534 3098 2438 2992 
Q 2342 2886 2201 2793 
Q 2061 2701 1888 2598 
Q 2202 2445 2381 2297 
Q 2560 2150 2646 2006 
Q 2733 1862 2752 1718 
Q 2771 1574 2771 1434 
Q 2771 1190 2665 979 
Q 2560 768 2384 614 
Q 2208 461 1971 371 
Q 1734 282 1466 282 
Q 1184 282 950 362 
Q 717 442 550 576 
Q 384 710 294 892 
Q 205 1075 205 1280 
Q 205 1434 246 1584 
Q 288 1734 390 1875 
Q 493 2016 659 2137 
Q 826 2259 1069 2368 
z
M 1683 2707 
Q 1920 2854 2022 3046 
Q 2125 3238 2125 3526 
Q 2125 3827 1968 4019 
Q 1811 4211 1472 4211 
Q 1158 4211 1011 4035 
Q 864 3859 864 3597 
Q 864 3334 1046 3126 
Q 1229 2918 1683 2707 
z
M 1254 2266 
Q 1107 2176 1011 2077 
Q 915 1978 860 1866 
Q 806 1754 784 1622 
Q 762 1491 762 1331 
Q 762 941 976 710 
Q 1190 480 1517 480 
Q 2163 480 2163 1235 
Q 2163 1414 2108 1555 
Q 2054 1696 1942 1817 
Q 1830 1939 1657 2048 
Q 1485 2157 1254 2266 
z
" transform="scale(0.015625)"/>
       </defs>
       <use xlink:href="#STSongti-SC-Black-30"/>
       <use xlink:href="#STSongti-SC-Black-2e" transform="translate(46.899994 0)"/>
       <use xlink:href="#STSongti-SC-Black-38" transform="translate(68.799988 0)"/>
      </g>
     </g>
    </g>
    <g id="ytick_6">
     <g id="line2d_12">
      <g>
       <use xlink:href="#m7b68cf426c" x="61.326875" y="23.127042" style="stroke: #000000; stroke-width: 0.8"/>
      </g>
     </g>
     <g id="text_13">
      <!-- 1.0 -->
      <g transform="translate(35.811875 28.887042) scale(0.16 -0.16)">
       <use xlink:href="#STSongti-SC-Black-31"/>
       <use xlink:href="#STSongti-SC-Black-2e" transform="translate(46.899994 0)"/>
       <use xlink:href="#STSongti-SC-Black-30" transform="translate(68.799988 0)"/>
      </g>
     </g>
    </g>
    <g id="text_14">
     <!-- 近似比 -->
     <g transform="translate(29.586875 177.505932) rotate(-90) scale(0.16 -0.16)">
      <defs>
       <path id="STSongti-SC-Black-8fd1" d="M 3514 4320 
Q 4205 4557 4947 5094 
Q 5203 4883 5404 4656 
Q 5606 4429 5641 4381 
Q 5677 4333 5677 4294 
Q 5677 4256 5632 4256 
Q 5587 4256 5529 4269 
Q 5472 4282 5325 4282 
L 3565 4179 
Q 3501 4128 3481 4073 
Q 3462 4019 3462 3798 
Q 3462 3578 3443 3168 
L 5030 3168 
Q 5261 3597 5296 3638 
Q 5331 3680 5370 3680 
Q 5446 3680 5824 3401 
Q 6202 3123 6202 3040 
Q 6202 2957 6067 2957 
L 5069 2957 
Q 5056 2886 4979 2848 
L 4979 1069 
L 4992 653 
Q 4992 602 4979 573 
Q 4966 544 4784 483 
Q 4602 422 4448 422 
Q 4294 422 4243 438 
Q 4192 454 4192 512 
L 4192 2957 
L 3430 2957 
Q 3392 2400 3360 2179 
Q 3328 1958 3235 1712 
Q 3142 1466 2995 1245 
Q 2848 1024 2640 822 
Q 2432 621 2150 422 
Q 2362 301 2717 243 
Q 3072 186 3785 186 
Q 4499 186 5152 230 
L 6221 314 
Q 6259 314 6259 301 
Q 6259 288 6140 214 
Q 6022 141 5910 -54 
Q 5798 -250 5747 -480 
Q 5734 -538 5702 -550 
Q 5670 -563 5296 -572 
Q 4922 -582 4602 -582 
Q 3514 -582 3046 -489 
Q 2579 -397 2361 -246 
Q 2144 -96 1792 320 
Q 1690 442 1587 442 
Q 1485 442 1337 266 
Q 1190 90 845 -435 
Q 800 -506 774 -506 
Q 749 -506 729 -490 
Q 710 -474 550 -237 
L 237 224 
Q 819 550 1062 666 
L 1062 2566 
L 634 2566 
Q 461 2566 365 2522 
L 192 2810 
Q 326 2778 512 2778 
L 986 2778 
Q 1011 2835 1097 2976 
Q 1184 3117 1209 3136 
Q 1235 3155 1261 3155 
Q 1325 3155 1664 2950 
Q 2003 2746 2003 2659 
Q 2003 2573 1792 2496 
L 1792 730 
Q 1914 576 2067 474 
Q 2438 890 2576 1434 
Q 2714 1978 2714 2784 
Q 2714 3590 2682 4614 
Q 3110 4506 3514 4320 
z
M 653 5005 
Q 864 5005 1254 4918 
Q 1645 4832 1833 4656 
Q 2022 4480 2022 4243 
Q 2022 4006 1872 3846 
Q 1722 3686 1510 3686 
Q 1370 3686 1264 3795 
Q 1158 3904 1158 4064 
Q 1158 4365 1056 4563 
Q 954 4762 691 4922 
Q 608 4973 608 4989 
Q 608 5005 653 5005 
z
" transform="scale(0.015625)"/>
       <path id="STSongti-SC-Black-4f3c" d="M 1043 2605 
Q 736 2221 505 1987 
Q 275 1754 249 1754 
Q 224 1754 224 1782 
Q 224 1811 282 1901 
Q 762 2682 973 3437 
Q 1184 4192 1293 5190 
Q 1690 5088 1981 4989 
Q 2272 4890 2342 4848 
Q 2413 4806 2413 4752 
Q 2413 4698 2285 4646 
Q 2227 4621 2182 4547 
Q 2138 4474 1958 4099 
Q 1779 3725 1594 3424 
Q 1933 3334 1933 3251 
Q 1933 3206 1818 3155 
L 1818 -403 
Q 1818 -454 1802 -476 
Q 1786 -499 1683 -540 
Q 1581 -582 1437 -604 
Q 1293 -627 1088 -627 
Q 1018 -627 1018 -563 
L 1037 38 
Q 1043 320 1043 570 
L 1043 2605 
z
M 4998 1075 
Q 4544 282 3510 -185 
Q 2477 -653 2330 -653 
Q 2291 -653 2291 -621 
Q 2291 -589 2406 -531 
Q 3334 -58 3817 454 
Q 4301 966 4515 1712 
Q 4730 2458 4730 3949 
Q 4730 4378 4717 4986 
Q 5075 4947 5411 4870 
Q 5747 4794 5795 4762 
Q 5843 4730 5843 4685 
Q 5843 4621 5766 4585 
Q 5690 4550 5667 4486 
Q 5645 4422 5638 4237 
Q 5568 2995 5430 2310 
Q 5293 1626 5062 1184 
Q 5619 979 5904 668 
Q 6189 358 6189 83 
Q 6189 -192 6032 -342 
Q 5875 -493 5680 -493 
Q 5485 -493 5369 -361 
Q 5254 -230 5280 -54 
Q 5306 122 5306 250 
Q 5306 717 4998 1075 
z
M 3117 4928 
Q 3277 4928 3613 4806 
Q 3949 4685 4134 4534 
Q 4320 4384 4403 4208 
Q 4486 4032 4486 3789 
Q 4486 3546 4355 3386 
Q 4224 3226 4029 3226 
Q 3834 3226 3715 3357 
Q 3597 3488 3597 3680 
Q 3597 3718 3613 3814 
Q 3629 3910 3629 4038 
Q 3629 4582 3136 4845 
Q 3066 4877 3066 4902 
Q 3066 4928 3117 4928 
z
M 3142 1466 
Q 3635 1779 4154 2163 
Q 4211 2208 4233 2208 
Q 4256 2208 4256 2185 
Q 4256 2163 4205 2093 
Q 3610 1293 2880 166 
Q 2842 96 2784 96 
Q 2726 96 2691 128 
Q 2656 160 2512 371 
Q 2368 582 2275 729 
Q 2182 877 2182 918 
Q 2182 960 2252 998 
Q 2323 1037 2352 1088 
Q 2381 1139 2381 1261 
L 2381 3827 
Q 2381 4154 2362 4429 
Q 2643 4403 2928 4364 
Q 3213 4326 3264 4297 
Q 3315 4269 3315 4230 
Q 3315 4154 3142 4077 
L 3142 1466 
z
" transform="scale(0.015625)"/>
       <path id="STSongti-SC-Black-6bd4" d="M 3994 2586 
Q 4390 2963 5050 4058 
Q 5350 3866 5635 3619 
Q 5920 3373 5920 3309 
Q 5920 3245 5808 3245 
Q 5696 3245 5619 3222 
Q 5542 3200 5379 3120 
Q 5216 3040 4826 2822 
L 3994 2355 
L 3994 531 
Q 3994 371 4125 313 
Q 4256 256 4666 256 
Q 4954 256 5091 323 
Q 5229 390 5344 614 
Q 5459 838 5626 1376 
Q 5651 1459 5683 1459 
Q 5715 1459 5702 1370 
Q 5645 1005 5645 793 
Q 5645 582 5709 444 
Q 5773 307 5926 201 
Q 6080 96 6080 0 
Q 6080 -122 5939 -266 
Q 5798 -410 5548 -470 
Q 5299 -531 4822 -531 
Q 4346 -531 3952 -480 
Q 3558 -429 3420 -352 
Q 3283 -275 3244 -121 
Q 3206 32 3206 390 
L 3206 4429 
Q 3206 4864 3187 5146 
Q 3770 5088 3974 5046 
Q 4179 5005 4179 4941 
Q 4179 4877 3994 4819 
L 3994 2586 
z
M 1555 2893 
L 2138 2893 
Q 2362 3245 2397 3283 
Q 2432 3322 2489 3322 
Q 2547 3322 2720 3178 
Q 2893 3034 3011 2928 
Q 3130 2822 3130 2752 
Q 3130 2682 3034 2682 
L 1555 2682 
L 1555 634 
L 2432 928 
Q 3040 1133 3091 1133 
Q 3110 1133 3110 1113 
Q 3110 1094 3072 1069 
Q 1664 128 1030 -454 
Q 960 -525 928 -525 
Q 902 -525 844 -413 
Q 787 -301 636 32 
Q 486 365 486 390 
Q 486 435 544 461 
Q 813 589 813 787 
L 813 4358 
Q 813 4685 794 4960 
Q 1715 4902 1715 4768 
Q 1715 4698 1555 4634 
L 1555 2893 
z
" transform="scale(0.015625)"/>
      </defs>
      <use xlink:href="#STSongti-SC-Black-8fd1"/>
      <use xlink:href="#STSongti-SC-Black-4f3c" transform="translate(99.999985 0)"/>
      <use xlink:href="#STSongti-SC-Black-6bd4" transform="translate(199.999969 0)"/>
     </g>
    </g>
   </g>
   <g id="patch_27">
    <path d="M 61.326875 288.908125 
L 61.326875 18.103739 
" style="fill: none; stroke: #000000; stroke-width: 0.8; stroke-linejoin: miter; stroke-linecap: square"/>
   </g>
   <g id="patch_28">
    <path d="M 443.52 288.908125 
L 443.52 18.103739 
" style="fill: none; stroke: #000000; stroke-width: 0.8; stroke-linejoin: miter; stroke-linecap: square"/>
   </g>
   <g id="patch_29">
    <path d="M 61.326875 288.908125 
L 443.52 288.908125 
" style="fill: none; stroke: #000000; stroke-width: 0.8; stroke-linejoin: miter; stroke-linecap: square"/>
   </g>
   <g id="patch_30">
    <path d="M 61.326875 18.103739 
L 443.52 18.103739 
" style="fill: none; stroke: #000000; stroke-width: 0.8; stroke-linejoin: miter; stroke-linecap: square"/>
   </g>
  </g>
 </g>
 <defs>
  <clipPath id="pebc591142c">
   <rect x="61.326875" y="18.103739" width="382.193125" height="270.804386"/>
  </clipPath>
 </defs>
</svg>
